<?xml version="1.0" encoding="UTF-8"?>
<svg version="1.1" xmlns="http://www.w3.org/2000/svg" width="145" height="153">
<path d="M0 0 C-0.54766165 5.01380384 -2.24259625 8.96537856 -4.5625 13.375 C-5.28707105 14.77963202 -6.0110098 16.18459035 -6.734375 17.58984375 C-7.10755859 18.31026855 -7.48074219 19.03069336 -7.86523438 19.77294922 C-9.01147134 22.02251324 -10.11301471 24.2891678 -11.203125 26.56640625 C-11.55689209 27.29875488 -11.91065918 28.03110352 -12.27514648 28.78564453 C-12.95627876 30.19856519 -13.63050969 31.61483777 -14.29711914 33.03466797 C-15.12302857 34.72847859 -16.05400788 36.3702087 -17 38 C-17.99 38.33 -18.98 38.66 -20 39 C-20 39.66 -20 40.32 -20 41 C-19.01 41.33 -18.02 41.66 -17 42 C-18.44281322 48.09187803 -21.83794943 53.38520729 -26 58 C-29.234375 59.80078125 -29.234375 59.80078125 -32 61 C-31.89171875 62.38445312 -31.89171875 62.38445312 -31.78125 63.796875 C-30.99282007 74.87869566 -30.89758085 85.89321266 -31 97 C-23.44525394 93.47168453 -16.45973064 89.54039116 -9.54638672 84.89672852 C-5.19601588 82 -5.19601588 82 -3 82 C-2.505 80.515 -2.505 80.515 -2 79 C-0.34997172 77.64613064 1.3174387 76.31321858 3 75 C3.99 73.515 3.99 73.515 5 72 C5.66 72 6.32 72 7 72 C7.2475 71.13375 7.495 70.2675 7.75 69.375 C9 66 9 66 11 63.0625 C13.49597178 59.57026048 13.49597178 59.57026048 15 53 C6.42 53 -2.16 53 -11 53 C-10 48 -10 48 -7 41 C4.22 41 15.44 41 27 41 C29.96198473 52.8479389 23.79663629 65.83282461 18 76 C15.32229232 79.75936698 12.3865702 82.87608458 9 86 C7.70449219 87.25103516 7.70449219 87.25103516 6.3828125 88.52734375 C2.41630042 92.25256949 -0.78699248 95.22535914 -6 97 C-6 97.66 -6 98.32 -6 99 C-7.01578125 99.50789063 -8.0315625 100.01578125 -9.078125 100.5390625 C-9.73893066 100.86970703 -10.39973633 101.20035156 -11.08056641 101.54101562 C-12.53519119 102.26783692 -13.99060535 102.99308037 -15.44677734 103.71679688 C-18.82643068 105.39880889 -22.1874405 107.09933099 -25.5234375 108.8671875 C-26.54695313 109.40601563 -27.57046875 109.94484375 -28.625 110.5 C-29.52476563 110.9846875 -30.42453125 111.469375 -31.3515625 111.96875 C-35.36583647 113.53183013 -38.65041844 113.47860172 -42.71313477 112.0378418 C-44.06362915 111.37522339 -44.06362915 111.37522339 -45.44140625 110.69921875 C-46.43720703 110.21646484 -47.43300781 109.73371094 -48.45898438 109.23632812 C-49.48314453 108.72521484 -50.50730469 108.21410156 -51.5625 107.6875 C-52.59052734 107.18798828 -53.61855469 106.68847656 -54.67773438 106.17382812 C-64.40718957 101.41314201 -64.40718957 101.41314201 -68 99 C-68 98.34 -68 97.68 -68 97 C-68.763125 96.731875 -69.52625 96.46375 -70.3125 96.1875 C-72.91245703 95.03868178 -74.38885423 94.32721056 -76 92 C-75.875 89.9375 -75.875 89.9375 -75 88 C-73.515 87.01 -73.515 87.01 -72 86 C-72.66 85.67 -73.32 85.34 -74 85 C-74 85.66 -74 86.32 -74 87 C-74.66 87 -75.32 87 -76 87 C-75.49443376 82.95547005 -74.04544676 79.88706509 -72.1328125 76.35546875 C-70.84710359 73.68208092 -69.86702729 70.92882339 -68.84326172 68.1472168 C-67.44738971 64.59287566 -65.73118437 61.21304073 -64 57.8125 C-63.48566406 56.78479492 -63.48566406 56.78479492 -62.9609375 55.73632812 C-61.47358281 52.78716492 -59.98483592 49.97656757 -58.1875 47.19921875 C-57.795625 46.47347656 -57.40375 45.74773437 -57 45 C-57.33 44.01 -57.66 43.02 -58 42 C-57.01 42 -56.02 42 -55 42 C-55.33 41.01 -55.66 40.02 -56 39 C-54.5625 35.8125 -54.5625 35.8125 -53 33 C-52.34 33 -51.68 33 -51 33 C-50.5978125 32.1028125 -50.5978125 32.1028125 -50.1875 31.1875 C-48.28837651 27.68911463 -46.79963639 26.26654546 -43 25 C-43.33 23.35 -43.66 21.7 -44 20 C-51.92 19.67 -59.84 19.34 -68 19 C-68 21.97 -68 24.94 -68 28 C-69 29 -69 29 -70.8125 29.1328125 C-71.534375 29.13023438 -72.25625 29.12765625 -73 29.125 C-73.721875 29.12757812 -74.44375 29.13015625 -75.1875 29.1328125 C-77 29 -77 29 -78 28 C-78.10011296 25.01133358 -78.13873975 22.05089547 -78.125 19.0625 C-78.12886719 18.22525391 -78.13273437 17.38800781 -78.13671875 16.52539062 C-78.13542969 15.72423828 -78.13414063 14.92308594 -78.1328125 14.09765625 C-78.13168457 13.36039307 -78.13055664 12.62312988 -78.12939453 11.86352539 C-78 10 -78 10 -77 8 C-69.40115204 7.94928236 -61.80234776 7.91425893 -54.20336914 7.89013672 C-51.61839161 7.88008033 -49.03342545 7.86643351 -46.44848633 7.84912109 C-42.73255608 7.82485729 -39.01677627 7.81351316 -35.30078125 7.8046875 C-34.14540359 7.79436493 -32.99002594 7.78404236 -31.79963684 7.77340698 C-30.71889389 7.77325592 -29.63815094 7.77310486 -28.5246582 7.77294922 C-27.10235649 7.76628738 -27.10235649 7.76628738 -25.65132141 7.75949097 C-22.77944325 8.02000734 -20.64827994 8.90511343 -18 10 C-15.92297564 9.38215686 -15.92297564 9.38215686 -14.08203125 8.0078125 C-13.38529297 7.55019531 -12.68855469 7.09257813 -11.97070312 6.62109375 C-10.90239258 5.88052734 -10.90239258 5.88052734 -9.8125 5.125 C-8.38384784 4.1657803 -6.95296164 3.20987696 -5.51953125 2.2578125 C-4.89151611 1.8261377 -4.26350098 1.39446289 -3.61645508 0.94970703 C-2 0 -2 0 0 0 Z M-22 11 C-22.33 11.99 -22.66 12.98 -23 14 C-22.01 13.67 -21.02 13.34 -20 13 C-20.66 12.34 -21.32 11.68 -22 11 Z M-26 14 C-28.49634608 15.35390064 -30.77773846 16.73580411 -33.125 18.3125 C-33.77082031 18.72951172 -34.41664062 19.14652344 -35.08203125 19.57617188 C-38.60102085 21.74982101 -38.60102085 21.74982101 -41 25 C-39.02 25 -37.04 25 -35 25 C-34.67 24.01 -34.34 23.02 -34 22 C-31.49609375 20.17578125 -31.49609375 20.17578125 -28.4375 18.3125 C-27.42558594 17.68988281 -26.41367188 17.06726563 -25.37109375 16.42578125 C-24.58863281 15.95527344 -23.80617188 15.48476563 -23 15 C-23.99 14.67 -24.98 14.34 -26 14 Z M-28 27 C-26.68 28.32 -25.36 29.64 -24 31 C-21.08828211 27.33019796 -21.08828211 27.33019796 -20 23 C-23.28158484 23 -25.37881108 25.17656423 -28 27 Z M-36 30 C-35.34 30.66 -34.68 31.32 -34 32 C-34 31.34 -34 30.68 -34 30 C-34.66 30 -35.32 30 -36 30 Z M-52 55 C-53.32 57.64 -54.64 60.28 -56 63 C-55.236875 62.690625 -54.47375 62.38125 -53.6875 62.0625 C-51.81210323 61.32106407 -49.91315348 60.63771783 -48 60 C-49.3089572 56.87802522 -49.3089572 56.87802522 -52 55 Z M-44.5 65.8125 C-45.2734375 66.33457031 -46.046875 66.85664062 -46.84375 67.39453125 C-48.96359565 68.88533295 -48.96359565 68.88533295 -50.4453125 70.48046875 C-52.54478157 72.53246239 -54.88746821 73.94614453 -57.375 75.5 C-58.77878906 76.38171875 -58.77878906 76.38171875 -60.2109375 77.28125 C-62.79578603 78.87415386 -65.39229149 80.44485747 -68 82 C-66.66498541 85.17295134 -65.53734097 86.61577278 -62.515625 88.25390625 C-61.82726562 88.63353516 -61.13890625 89.01316406 -60.4296875 89.40429688 C-59.71039063 89.78650391 -58.99109375 90.16871094 -58.25 90.5625 C-57.54617187 90.94857422 -56.84234375 91.33464844 -56.1171875 91.73242188 C-52.12207761 93.91191027 -48.0835795 95.99031386 -44 98 C-43.34956362 87.6510926 -42.83505115 77.3734499 -43 67 C-42.195625 66.71125 -41.39125 66.4225 -40.5625 66.125 C-37.8673532 65.26737432 -37.8673532 65.26737432 -37 63 C-40.56209836 63 -41.60568237 63.82989243 -44.5 65.8125 Z M-70 83 C-70.33 83.66 -70.66 84.32 -71 85 C-70.34 85 -69.68 85 -69 85 C-69.33 84.34 -69.66 83.68 -70 83 Z " fill="#133C44" transform="translate(107,38)"/>
<path d="M0 0 C-0.54766165 5.01380384 -2.24259625 8.96537856 -4.5625 13.375 C-5.28707105 14.77963202 -6.0110098 16.18459035 -6.734375 17.58984375 C-7.10755859 18.31026855 -7.48074219 19.03069336 -7.86523438 19.77294922 C-9.01147134 22.02251324 -10.11301471 24.2891678 -11.203125 26.56640625 C-11.55689209 27.29875488 -11.91065918 28.03110352 -12.27514648 28.78564453 C-12.95627876 30.19856519 -13.63050969 31.61483777 -14.29711914 33.03466797 C-15.12302857 34.72847859 -16.05400788 36.3702087 -17 38 C-17.99 38.33 -18.98 38.66 -20 39 C-20 39.66 -20 40.32 -20 41 C-19.01 41.33 -18.02 41.66 -17 42 C-18.44281322 48.09187803 -21.83794943 53.38520729 -26 58 C-29.234375 59.80078125 -29.234375 59.80078125 -32 61 C-31.89171875 62.4540625 -31.89171875 62.4540625 -31.78125 63.9375 C-31.09662052 73.64190937 -30.88359186 83.27345357 -31 93 C-33.09352976 89.56632144 -33.23437612 86.90636407 -33.1953125 82.921875 C-33.18886719 81.76171875 -33.18242188 80.6015625 -33.17578125 79.40625 C-33.15902344 78.1996875 -33.14226562 76.993125 -33.125 75.75 C-33.11597656 74.52796875 -33.10695312 73.3059375 -33.09765625 72.046875 C-33.07409513 69.03105218 -33.04119706 66.01562508 -33 63 C-33.72316406 63.54140625 -33.72316406 63.54140625 -34.4609375 64.09375 C-35.09257813 64.5578125 -35.72421875 65.021875 -36.375 65.5 C-37.31472656 66.19609375 -37.31472656 66.19609375 -38.2734375 66.90625 C-40 68 -40 68 -42 68 C-41.95399658 68.9286084 -41.90799316 69.8572168 -41.8605957 70.81396484 C-41.69745655 74.25389513 -41.54804041 77.69384947 -41.40795898 81.13476562 C-41.34446179 82.62491962 -41.27547509 84.11485011 -41.20092773 85.60449219 C-41.09481729 87.74379266 -41.00836747 89.88311605 -40.92578125 92.0234375 C-40.86817627 93.31169434 -40.81057129 94.59995117 -40.7512207 95.92724609 C-40.83331787 96.94125488 -40.91541504 97.95526367 -41 99 C-41.99 99.66 -42.98 100.32 -44 101 C-44.99 100.67 -45.98 100.34 -47 100 C-47.6875 97.9375 -47.6875 97.9375 -48 96 C-46.515 96.495 -46.515 96.495 -45 97 C-44.94839722 95.66038208 -44.94839722 95.66038208 -44.89575195 94.29370117 C-44.75649672 90.97683578 -44.59568074 87.66247964 -44.42016602 84.34741211 C-44.34867663 82.91324744 -44.28577903 81.47862742 -44.23168945 80.04370117 C-44.1523662 77.9791528 -44.04212378 75.91822135 -43.92578125 73.85546875 C-43.86817627 72.61434326 -43.81057129 71.37321777 -43.7512207 70.09448242 C-43 67 -43 67 -40.44213867 65.0715332 C-39.63623291 64.71792725 -38.83032715 64.36432129 -38 64 C-41.48249231 65.25756667 -44.06465849 66.7731892 -47 69 C-47.66 69 -48.32 69 -49 69 C-49.33 69.99 -49.66 70.98 -50 72 C-52.5625 73.1875 -52.5625 73.1875 -55 74 C-55 73.34 -55 72.68 -55 72 C-53.02 71.505 -53.02 71.505 -51 71 C-51 70.01 -51 69.02 -51 68 C-50.01 68 -49.02 68 -48 68 C-48 67.01 -48 66.02 -48 65 C-45.525 64.505 -45.525 64.505 -43 64 C-43.33 63.01 -43.66 62.02 -44 61 C-44.61875 60.855625 -45.2375 60.71125 -45.875 60.5625 C-48.7073715 59.8127546 -49.44987517 58.40269349 -51 56 C-52.32 57.32 -53.64 58.64 -55 60 C-54.95875 59.0925 -54.9175 58.185 -54.875 57.25 C-54.99531556 54.1217954 -55.3914708 52.61385994 -57 50 C-57.226875 51.27875 -57.45375 52.5575 -57.6875 53.875 C-58.07421875 56.0546875 -58.07421875 56.0546875 -59 58 C-61.58203125 59.2578125 -61.58203125 59.2578125 -64 60 C-60.45983087 50.74524313 -60.45983087 50.74524313 -58.1875 47.0625 C-57.795625 46.381875 -57.40375 45.70125 -57 45 C-57.33 44.01 -57.66 43.02 -58 42 C-57.01 42 -56.02 42 -55 42 C-55.33 41.01 -55.66 40.02 -56 39 C-54.5625 35.8125 -54.5625 35.8125 -53 33 C-52.34 33 -51.68 33 -51 33 C-50.5978125 32.1028125 -50.5978125 32.1028125 -50.1875 31.1875 C-48.28837651 27.68911463 -46.79963639 26.26654546 -43 25 C-43.33 23.35 -43.66 21.7 -44 20 C-51.92 19.67 -59.84 19.34 -68 19 C-68 21.97 -68 24.94 -68 28 C-69 29 -69 29 -70.8125 29.1328125 C-71.534375 29.13023438 -72.25625 29.12765625 -73 29.125 C-73.721875 29.12757812 -74.44375 29.13015625 -75.1875 29.1328125 C-77 29 -77 29 -78 28 C-78.10011296 25.01133358 -78.13873975 22.05089547 -78.125 19.0625 C-78.12886719 18.22525391 -78.13273437 17.38800781 -78.13671875 16.52539062 C-78.13542969 15.72423828 -78.13414063 14.92308594 -78.1328125 14.09765625 C-78.13168457 13.36039307 -78.13055664 12.62312988 -78.12939453 11.86352539 C-78 10 -78 10 -77 8 C-69.40115204 7.94928236 -61.80234776 7.91425893 -54.20336914 7.89013672 C-51.61839161 7.88008033 -49.03342545 7.86643351 -46.44848633 7.84912109 C-42.73255608 7.82485729 -39.01677627 7.81351316 -35.30078125 7.8046875 C-34.14540359 7.79436493 -32.99002594 7.78404236 -31.79963684 7.77340698 C-30.71889389 7.77325592 -29.63815094 7.77310486 -28.5246582 7.77294922 C-27.10235649 7.76628738 -27.10235649 7.76628738 -25.65132141 7.75949097 C-22.77944325 8.02000734 -20.64827994 8.90511343 -18 10 C-15.92297564 9.38215686 -15.92297564 9.38215686 -14.08203125 8.0078125 C-13.38529297 7.55019531 -12.68855469 7.09257813 -11.97070312 6.62109375 C-10.90239258 5.88052734 -10.90239258 5.88052734 -9.8125 5.125 C-8.38384784 4.1657803 -6.95296164 3.20987696 -5.51953125 2.2578125 C-4.89151611 1.8261377 -4.26350098 1.39446289 -3.61645508 0.94970703 C-2 0 -2 0 0 0 Z M-22 11 C-22.33 11.99 -22.66 12.98 -23 14 C-22.01 13.67 -21.02 13.34 -20 13 C-20.66 12.34 -21.32 11.68 -22 11 Z M-26 14 C-28.49634608 15.35390064 -30.77773846 16.73580411 -33.125 18.3125 C-33.77082031 18.72951172 -34.41664062 19.14652344 -35.08203125 19.57617188 C-38.60102085 21.74982101 -38.60102085 21.74982101 -41 25 C-39.02 25 -37.04 25 -35 25 C-34.67 24.01 -34.34 23.02 -34 22 C-31.49609375 20.17578125 -31.49609375 20.17578125 -28.4375 18.3125 C-27.42558594 17.68988281 -26.41367188 17.06726563 -25.37109375 16.42578125 C-24.58863281 15.95527344 -23.80617188 15.48476563 -23 15 C-23.99 14.67 -24.98 14.34 -26 14 Z M-28 27 C-26.68 28.32 -25.36 29.64 -24 31 C-21.08828211 27.33019796 -21.08828211 27.33019796 -20 23 C-23.28158484 23 -25.37881108 25.17656423 -28 27 Z M-36 30 C-35.34 30.66 -34.68 31.32 -34 32 C-34 31.34 -34 30.68 -34 30 C-34.66 30 -35.32 30 -36 30 Z " fill="#2A464F" transform="translate(107,38)"/>
<path d="M0 0 C1.83691406 -0.01836914 1.83691406 -0.01836914 3.7109375 -0.03710938 C9.83427017 -0.04704985 15.1260638 0.02416333 20.875 2.1875 C21.86242187 2.54328125 22.84984375 2.8990625 23.8671875 3.265625 C30.26820523 5.86766473 36.58885862 8.63554492 41.875 13.1875 C41.875 13.8475 41.875 14.5075 41.875 15.1875 C42.865 15.5175 43.855 15.8475 44.875 16.1875 C44.545 16.8475 44.215 17.5075 43.875 18.1875 C43.215 18.1875 42.555 18.1875 41.875 18.1875 C41.38 19.6725 41.38 19.6725 40.875 21.1875 C37.875 23.1875 37.875 23.1875 35.4375 23 C32.875 22.1875 32.875 22.1875 31.125 20.8125 C27.70995101 18.34607573 23.8681406 17.42481117 19.875 16.1875 C18.92625 15.836875 17.9775 15.48625 17 15.125 C-0.34087151 9.92273855 -15.44858934 12.85425012 -31.125 21.1875 C-32.45651062 21.85779971 -33.78923584 22.5257173 -35.125 23.1875 C-35.125 23.8475 -35.125 24.5075 -35.125 25.1875 C-35.785 25.1875 -36.445 25.1875 -37.125 25.1875 C-37.393125 25.826875 -37.66125 26.46625 -37.9375 27.125 C-39.125 29.1875 -39.125 29.1875 -42.125 30.1875 C-42.70151763 32.0653586 -42.70151763 32.0653586 -43.125 34.1875 C-43.87456366 35.42239265 -44.66990154 36.63023856 -45.5 37.8125 C-48.43355414 42.34000842 -49.81696203 46.99070048 -51.125 52.1875 C-51.29700928 52.81503174 -51.46901855 53.44256348 -51.64624023 54.08911133 C-55.12379196 69.3311088 -50.49912857 83.93022003 -42.7109375 96.921875 C-41.32354672 99.28667795 -41.32354672 99.28667795 -39.125 100.1875 C-37.92181172 104.570543 -37.78679825 106.52317514 -39.875 110.625 C-40.98875 111.8934375 -40.98875 111.8934375 -42.125 113.1875 C-43.115 113.1875 -44.105 113.1875 -45.125 113.1875 C-45.125 112.5275 -45.125 111.8675 -45.125 111.1875 C-46.445 110.5275 -47.765 109.8675 -49.125 109.1875 C-49.125 108.5275 -49.125 107.8675 -49.125 107.1875 C-49.785 107.1875 -50.445 107.1875 -51.125 107.1875 C-62.74569249 91.78411876 -66.5710175 73.03602373 -65.125 54.1875 C-63.96939167 46.08032529 -61.01589417 39.32478439 -57.125 32.1875 C-56.34815827 30.64885219 -55.57682161 29.10740538 -54.8125 27.5625 C-54.255625 26.44875 -53.69875 25.335 -53.125 24.1875 C-52.465 24.1875 -51.805 24.1875 -51.125 24.1875 C-50.856875 23.548125 -50.58875 22.90875 -50.3125 22.25 C-49.125 20.1875 -49.125 20.1875 -46.125 19.1875 C-46.125 18.5275 -46.125 17.8675 -46.125 17.1875 C-41.28196286 12.20993405 -35.12607085 8.93078907 -29 5.8125 C-28.33162109 5.46687012 -27.66324219 5.12124023 -26.97460938 4.76513672 C-22.68087779 2.65105558 -18.93249052 1.71351041 -14.125 1.1875 C-11.45753493 -1.47996507 -3.58946831 0.00185406 0 0 Z " fill="#2B4F57" transform="translate(69.125,11.8125)"/>
<path d="M0 0 C-0.5466098 5.06004496 -2.28673773 9.05032179 -4.625 13.5 C-5.34651631 14.90616682 -6.06786694 16.31241865 -6.7890625 17.71875 C-7.15547852 18.42644531 -7.52189453 19.13414063 -7.89941406 19.86328125 C-9.63161324 23.22623759 -11.31461813 26.61341107 -13 30 C-14 32 -15 34 -16 36 C-16.99 36 -17.98 36 -19 36 C-19.66 34.35 -20.32 32.7 -21 31 C-20.34 30.34 -19.68 29.68 -19 29 C-19.29369827 27.65737935 -19.6278958 26.32303717 -20 25 C-19.67 24.34 -19.34 23.68 -19 23 C-22.58327753 21.99782936 -22.58327753 21.99782936 -26 23 C-25.67 20.36 -25.34 17.72 -25 15 C-28.97081833 16.91694678 -32.6207572 18.73744729 -36.25 21.25 C-39 23 -39 23 -43 23 C-43.495 21.515 -43.495 21.515 -44 20 C-51.92 19.67 -59.84 19.34 -68 19 C-68 21.97 -68 24.94 -68 28 C-69 29 -69 29 -70.8125 29.1328125 C-71.534375 29.13023438 -72.25625 29.12765625 -73 29.125 C-73.721875 29.12757812 -74.44375 29.13015625 -75.1875 29.1328125 C-77 29 -77 29 -78 28 C-78.10011296 25.01133358 -78.13873975 22.05089547 -78.125 19.0625 C-78.12886719 18.22525391 -78.13273437 17.38800781 -78.13671875 16.52539062 C-78.13542969 15.72423828 -78.13414063 14.92308594 -78.1328125 14.09765625 C-78.13168457 13.36039307 -78.13055664 12.62312988 -78.12939453 11.86352539 C-78 10 -78 10 -77 8 C-69.40115204 7.94928236 -61.80234776 7.91425893 -54.20336914 7.89013672 C-51.61839161 7.88008033 -49.03342545 7.86643351 -46.44848633 7.84912109 C-42.73255608 7.82485729 -39.01677627 7.81351316 -35.30078125 7.8046875 C-34.14540359 7.79436493 -32.99002594 7.78404236 -31.79963684 7.77340698 C-30.71889389 7.77325592 -29.63815094 7.77310486 -28.5246582 7.77294922 C-27.10235649 7.76628738 -27.10235649 7.76628738 -25.65132141 7.75949097 C-22.77944325 8.02000734 -20.64827994 8.90511343 -18 10 C-15.92297564 9.38215686 -15.92297564 9.38215686 -14.08203125 8.0078125 C-13.38529297 7.55019531 -12.68855469 7.09257813 -11.97070312 6.62109375 C-10.90239258 5.88052734 -10.90239258 5.88052734 -9.8125 5.125 C-8.38384784 4.1657803 -6.95296164 3.20987696 -5.51953125 2.2578125 C-4.89151611 1.8261377 -4.26350098 1.39446289 -3.61645508 0.94970703 C-2 0 -2 0 0 0 Z M-22 11 C-22.33 11.99 -22.66 12.98 -23 14 C-22.01 13.67 -21.02 13.34 -20 13 C-20.66 12.34 -21.32 11.68 -22 11 Z " fill="#184048" transform="translate(107,38)"/>
<path d="M0 0 C0.66 0.33 1.32 0.66 2 1 C1.67 1.66 1.34 2.32 1 3 C1.33 3.33 1.66 3.66 2 4 C0.94289907 6.27683278 -0.08981993 8.10977992 -1.6875 10.0625 C-2.120625 10.701875 -2.55375 11.34125 -3 12 C-2.2236068 15.0745356 -2.2236068 15.0745356 0 17 C-0.33773438 17.61746094 -0.67546875 18.23492187 -1.0234375 18.87109375 C-7.8455016 31.82512876 -9.43325658 46.641189 -5.4375 60.875 C-1.62964601 71.93894235 -1.62964601 71.93894235 6 80 C7.20318828 84.383043 7.33820175 86.33567514 5.25 90.4375 C4.13625 91.7059375 4.13625 91.7059375 3 93 C2.01 93 1.02 93 0 93 C0 92.34 0 91.68 0 91 C-1.32 90.34 -2.64 89.68 -4 89 C-4 88.34 -4 87.68 -4 87 C-4.66 87 -5.32 87 -6 87 C-17.62069249 71.59661876 -21.4460175 52.84852373 -20 34 C-18.84651967 25.90775428 -15.90757366 19.11874805 -12 12 C-11.64808594 11.28199219 -11.29617188 10.56398438 -10.93359375 9.82421875 C-9.86388985 7.73404418 -8.82676691 6.47546558 -7 5 C-4.8125 4.3125 -4.8125 4.3125 -3 4 C-3 3.01 -3 2.02 -3 1 C-2.01 0.67 -1.02 0.34 0 0 Z " fill="#1D434A" transform="translate(24,32)"/>
<path d="M0 0 C2.7500904 5.13350208 3.18149786 8.22378823 2 14 C2.515625 13.67 3.03125 13.34 3.5625 13 C6.78026512 11.67989123 9.5570528 11.86757895 13 12 C13.495 13.98 13.495 13.98 14 16 C13.34 16 12.68 16 12 16 C11.67 16.66 11.34 17.32 11 18 C10.34 17.67 9.68 17.34 9 17 C9 17.99 9 18.98 9 20 C8.01 20 7.02 20 6 20 C6 20.99 6 21.98 6 23 C5.071875 23.12375 5.071875 23.12375 4.125 23.25 C3.42375 23.4975 2.7225 23.745 2 24 C1.71898438 24.6084375 1.43796875 25.216875 1.1484375 25.84375 C-0.3012864 28.56568059 -1.92059151 29.59180883 -4.5 31.25 C-5.69109375 32.03117187 -5.69109375 32.03117187 -6.90625 32.828125 C-9 34 -9 34 -11 34 C-7.57422536 37.84958181 -3.65457753 40.19384631 0.75 42.75 C1.44738281 43.16121094 2.14476563 43.57242188 2.86328125 43.99609375 C4.57234691 45.00280366 6.28574596 46.00215064 8 47 C7.01 47.495 7.01 47.495 6 48 C5.195625 47.505 5.195625 47.505 4.375 47 C-0.01191058 45.15287976 -4.5844542 46.5281514 -9 48 C-9 48.66 -9 49.32 -9 50 C-7.6078125 49.7525 -7.6078125 49.7525 -6.1875 49.5 C-3 49 -3 49 0 49 C1.67099977 48.68911632 3.33871537 48.35919668 5 48 C3.68 50.64 2.36 53.28 1 56 C-3.75481646 55.42365861 -6.97048212 53.44931479 -11 51 C-11 50.34 -11 49.68 -11 49 C-11.763125 48.731875 -12.52625 48.46375 -13.3125 48.1875 C-15.91245703 47.03868178 -17.38885423 46.32721056 -19 44 C-18.875 41.9375 -18.875 41.9375 -18 40 C-17.01 39.34 -16.02 38.68 -15 38 C-15.66 37.67 -16.32 37.34 -17 37 C-17 37.66 -17 38.32 -17 39 C-17.66 39 -18.32 39 -19 39 C-18.48281319 34.86250549 -16.94100722 31.75175934 -15.04296875 28.11328125 C-14.03122624 26.06327115 -13.21400244 24.02373427 -12.4375 21.875 C-9.84523196 14.87036082 -9.84523196 14.87036082 -8 12 C-4.8125 10.625 -4.8125 10.625 -2 10 C-2.04125 9.0925 -2.0825 8.185 -2.125 7.25 C-2.00468444 4.1217954 -1.6085292 2.61385994 0 0 Z M-13 35 C-13.33 35.66 -13.66 36.32 -14 37 C-13.34 37 -12.68 37 -12 37 C-12.33 36.34 -12.66 35.68 -13 35 Z " fill="#163D45" transform="translate(50,86)"/>
<path d="M0 0 C0.16841537 4.58960522 0.3288849 9.179396 0.48217773 13.76953125 C0.53536215 15.32917651 0.59067114 16.88875089 0.64819336 18.44824219 C0.73076674 20.6971102 0.80555406 22.94612707 0.87890625 25.1953125 C0.90594131 25.8861795 0.93297638 26.57704651 0.96083069 27.28884888 C1.0837296 31.3264983 0.79986674 35.04106359 0 39 C-0.66 39 -1.32 39 -2 39 C-2 39.99 -2 40.98 -2 42 C-3.5 43.6875 -3.5 43.6875 -5 45 C-4.34 45 -3.68 45 -3 45 C-3 45.66 -3 46.32 -3 47 C-2.34 47.33 -1.68 47.66 -1 48 C-2 49 -2 49 -5.09765625 49.28125 C-9.65831316 48.95255401 -12.49476554 47.66120259 -16.4375 45.5 C-17.07365234 45.16613281 -17.70980469 44.83226562 -18.36523438 44.48828125 C-19.91693107 43.67159878 -21.45947571 42.8375666 -23 42 C-22.33333333 39.33333333 -21.66666667 36.66666667 -21 34 C-21.7425 34.350625 -22.485 34.70125 -23.25 35.0625 C-26.21135857 36.07205406 -27.12953867 35.95682044 -30 35 C-30.99 35 -31.98 35 -33 35 C-33 34.34 -33 33.68 -33 33 C-28.20228602 30.07456465 -25.45722611 29.71011019 -20 31 C-17.125 31.8125 -17.125 31.8125 -15 33 C-14.1875 35.125 -14.1875 35.125 -14 37 C-12.515 36.505 -12.515 36.505 -11 36 C-10.34 36 -9.68 36 -9 36 C-9.03665771 35.08710205 -9.07331543 34.1742041 -9.11108398 33.23364258 C-9.23070502 29.83212207 -9.31827461 26.43284723 -9.38452148 23.0300293 C-9.41963522 21.5602687 -9.46734162 20.09075112 -9.52807617 18.62182617 C-10.02007204 6.41288667 -10.02007204 6.41288667 -7.48095703 2.89599609 C-5.11131249 1.15424284 -2.99248333 0 0 0 Z " fill="#113B43" transform="translate(74,101)"/>
<path d="M0 0 C11.22 0 22.44 0 34 0 C35.04034137 4.16136546 34.81767871 6.39219462 34.125 10.5625 C33.94195312 11.69816406 33.75890625 12.83382812 33.5703125 14.00390625 C33 17 33 17 32 20 C30.35 20.33 28.7 20.66 27 21 C27.33 19.02 27.66 17.04 28 15 C26.68 15 25.36 15 24 15 C24 15.66 24 16.32 24 17 C23.34 17 22.68 17 22 17 C22 15.35 22 13.7 22 12 C13.42 12 4.84 12 -4 12 C-3 7 -3 7 0 0 Z " fill="#49686F" transform="translate(100,79)"/>
<path d="M0 0 C3.5262272 0.8815568 4.68576045 1.26806355 7.34765625 3.36328125 C7.95287109 3.83830078 8.55808594 4.31332031 9.18164062 4.80273438 C9.80232422 5.30095703 10.42300781 5.79917969 11.0625 6.3125 C11.68705078 6.79912109 12.31160156 7.28574219 12.95507812 7.78710938 C16.0978968 10.27922707 18.79274333 12.59613531 21 16 C19.38050958 17.50594681 17.75424026 19.00460668 16.125 20.5 C15.22007812 21.3353125 14.31515625 22.170625 13.3828125 23.03125 C11 25 11 25 9 25 C9 25.66 9 26.32 9 27 C3.70588235 31 3.70588235 31 0 31 C0 27.7 0 24.4 0 21 C-3.63 21 -7.26 21 -11 21 C-10.49846199 16.68677314 -9.92172287 13.31128592 -7 10 C-3.3125 9.6875 -3.3125 9.6875 0 10 C0 6.7 0 3.4 0 0 Z " fill="#31525A" transform="translate(114,36)"/>
<path d="M0 0 C-0.9590625 0.433125 -0.9590625 0.433125 -1.9375 0.875 C-4.15206079 1.82823451 -4.15206079 1.82823451 -5 4 C-4.01 4.33 -3.02 4.66 -2 5 C-2.99 5.66 -3.98 6.32 -5 7 C-1.91111478 9.05925681 -1.29064073 9.2390374 2.1875 9.125 C3.445625 9.08375 4.70375 9.0425 6 9 C1.58735121 11.35197417 -3.11218518 12.89893095 -7.80859375 14.5859375 C-11.03716642 16.01646786 -13.29773186 17.76002465 -16 20 C-16.66 20 -17.32 20 -18 20 C-18 20.66 -18 21.32 -18 22 C-18.66 22 -19.32 22 -20 22 C-20.268125 22.639375 -20.53625 23.27875 -20.8125 23.9375 C-22 26 -22 26 -25 27 C-25.144375 27.639375 -25.28875 28.27875 -25.4375 28.9375 C-26 31 -26 31 -28.0625 32.25 C-28.701875 32.4975 -29.34125 32.745 -30 33 C-30.66 31.68 -31.32 30.36 -32 29 C-30.02 26.36 -28.04 23.72 -26 21 C-26.66 21 -27.32 21 -28 21 C-28 20.01 -28 19.02 -28 18 C-28.99 18.66 -29.98 19.32 -31 20 C-30.34 20.33 -29.68 20.66 -29 21 C-29.99 21.66 -30.98 22.32 -32 23 C-32.99 22.67 -33.98 22.34 -35 22 C-35.33 22.99 -35.66 23.98 -36 25 C-36.33 24.34 -36.66 23.68 -37 23 C-36.67 22.34 -36.34 21.68 -36 21 C-35.34 21 -34.68 21 -34 21 C-33.731875 20.360625 -33.46375 19.72125 -33.1875 19.0625 C-32 17 -32 17 -29 16 C-29 15.34 -29 14.68 -29 14 C-24.10821734 8.97233449 -17.86784987 5.66448495 -11.6875 2.5 C-10.99398437 2.1376123 -10.30046875 1.77522461 -9.5859375 1.40185547 C-5.91590589 -0.41445386 -3.90207969 -1.29121999 0 0 Z " fill="#34565D" transform="translate(52,15)"/>
<path d="M0 0 C0 1.98 0 3.96 0 6 C0.66 5.67 1.32 5.34 2 5 C3.67654729 5.27942455 5.34608154 5.60828247 7 6 C6.7215625 6.86625 6.7215625 6.86625 6.4375 7.75 C5.95976454 10.20692525 6.24270636 11.64397534 7 14 C6.01 14.33 5.02 14.66 4 15 C4.66 16.65 5.32 18.3 6 20 C6.66 20 7.32 20 8 20 C7.505 21.485 7.505 21.485 7 23 C6.34 23 5.68 23 5 23 C5 23.66 5 24.32 5 25 C5.99 25.33 6.98 25.66 8 26 C6.25 31.75 6.25 31.75 4 34 C2.875 28.25 2.875 28.25 4 26 C2.35 26 0.7 26 -1 26 C-1.4640625 24.576875 -1.4640625 24.576875 -1.9375 23.125 C-3.33579304 19.01237341 -4.73949382 16.88787691 -8 14 C-10.1381966 13.2127322 -10.1381966 13.2127322 -12 13 C-11.67 14.32 -11.34 15.64 -11 17 C-13.64 17 -16.28 17 -19 17 C-19 17.66 -19 18.32 -19 19 C-19.66 19 -20.32 19 -21 19 C-21.66 20.32 -22.32 21.64 -23 23 C-23.99 23 -24.98 23 -26 23 C-25.67 21.68 -25.34 20.36 -25 19 C-25.99 18.34 -26.98 17.68 -28 17 C-27.34 17 -26.68 17 -26 17 C-25.731875 16.401875 -25.46375 15.80375 -25.1875 15.1875 C-23.28837651 11.68911463 -21.79963639 10.26654546 -18 9 C-18 8.01 -18 7.02 -18 6 C-17.01 6.66 -16.02 7.32 -15 8 C-13.34450469 8.38499891 -11.6777567 8.72793135 -10 9 C-9.85884766 8.09507813 -9.85884766 8.09507813 -9.71484375 7.171875 C-8.83601348 4.50176772 -7.866928 3.80225504 -5.5625 2.25 C-4.94503906 1.82203125 -4.32757813 1.3940625 -3.69140625 0.953125 C-2 0 -2 0 0 0 Z M-3 11 C-1.68 12.32 -0.36 13.64 1 15 C3.91171789 11.33019796 3.91171789 11.33019796 5 7 C1.71841516 7 -0.37881108 9.17656423 -3 11 Z " fill="#2A454C" transform="translate(82,54)"/>
<path d="M0 0 C-0.5466098 5.06004496 -2.28673773 9.05032179 -4.625 13.5 C-5.34651631 14.90616682 -6.06786694 16.31241865 -6.7890625 17.71875 C-7.15547852 18.42644531 -7.52189453 19.13414063 -7.89941406 19.86328125 C-9.63161324 23.22623759 -11.31461813 26.61341107 -13 30 C-14 32 -15 34 -16 36 C-16.99 36 -17.98 36 -19 36 C-19.66 34.35 -20.32 32.7 -21 31 C-20.34 30.34 -19.68 29.68 -19 29 C-19.29369827 27.65737935 -19.6278958 26.32303717 -20 25 C-19.67 24.34 -19.34 23.68 -19 23 C-22.58327753 21.99782936 -22.58327753 21.99782936 -26 23 C-25.50769231 15.49230769 -25.50769231 15.49230769 -22.9375 13 C-22.298125 12.67 -21.65875 12.34 -21 12 C-21.66 12 -22.32 12 -23 12 C-23.33 10.68 -23.66 9.36 -24 8 C-23.18015625 8.43054687 -22.3603125 8.86109375 -21.515625 9.3046875 C-16.99858647 10.19805734 -15.59242347 9.06888538 -11.8828125 6.62109375 C-11.17898437 6.12738281 -10.47515625 5.63367187 -9.75 5.125 C-8.33040711 4.16588437 -6.90863384 3.20998555 -5.484375 2.2578125 C-4.86272461 1.8261377 -4.24107422 1.39446289 -3.60058594 0.94970703 C-2 0 -2 0 0 0 Z " fill="#123B42" transform="translate(107,38)"/>
<path d="M0 0 C3.62659504 1.20886501 4.81158416 2.80192181 7.4375 5.5625 C9.82268397 8.17685033 9.82268397 8.17685033 13 9 C13 9.66 13 10.32 13 11 C14.11375 9.824375 14.11375 9.824375 15.25 8.625 C17.54433318 6.43495469 19.12158858 5.17268614 22 4 C22 3.34 22 2.68 22 2 C23.65 1.34 25.3 0.68 27 0 C26.67 2.31 26.34 4.62 26 7 C25.34 7 24.68 7 24 7 C23.01 8.485 23.01 8.485 22 10 C21.01 10 20.02 10 19 10 C19 10.66 19 11.32 19 12 C18.01 12 17.02 12 16 12 C16.26676204 13.98491642 16.26676204 13.98491642 17 16 C17.99 16.33 18.98 16.66 20 17 C20.83360594 27.36053092 21.12288464 37.6094206 21 48 C18.90647024 44.56632144 18.76562388 41.90636407 18.8046875 37.921875 C18.81113281 36.76171875 18.81757812 35.6015625 18.82421875 34.40625 C18.84097656 33.1996875 18.85773438 31.993125 18.875 30.75 C18.88402344 29.52796875 18.89304687 28.3059375 18.90234375 27.046875 C18.92590487 24.03105218 18.95880294 21.01562508 19 18 C18.51789063 18.3609375 18.03578125 18.721875 17.5390625 19.09375 C16.90742187 19.5578125 16.27578125 20.021875 15.625 20.5 C14.99851562 20.9640625 14.37203125 21.428125 13.7265625 21.90625 C12 23 12 23 10 23 C10.04600342 23.9286084 10.09200684 24.8572168 10.1394043 25.81396484 C10.30254345 29.25389513 10.45195959 32.69384947 10.59204102 36.13476562 C10.65553821 37.62491962 10.72452491 39.11485011 10.79907227 40.60449219 C10.90518271 42.74379266 10.99163253 44.88311605 11.07421875 47.0234375 C11.13182373 48.31169434 11.18942871 49.59995117 11.2487793 50.92724609 C11.16668213 51.94125488 11.08458496 52.95526367 11 54 C10.01 54.66 9.02 55.32 8 56 C7.01 55.67 6.02 55.34 5 55 C4.3125 52.9375 4.3125 52.9375 4 51 C4.99 51.33 5.98 51.66 7 52 C7.03440186 51.10692139 7.06880371 50.21384277 7.10424805 49.29370117 C7.24350328 45.97683578 7.40431926 42.66247964 7.57983398 39.34741211 C7.65132337 37.91324744 7.71422097 36.47862742 7.76831055 35.04370117 C7.8476338 32.9791528 7.95787622 30.91822135 8.07421875 28.85546875 C8.13182373 27.61434326 8.18942871 26.37321777 8.2487793 25.09448242 C9 22 9 22 11.55786133 20.0715332 C12.36376709 19.71792725 13.16967285 19.36432129 14 19 C10.51750769 20.25756667 7.93534151 21.7731892 5 24 C4.34 24 3.68 24 3 24 C2.67 24.99 2.34 25.98 2 27 C-0.5625 28.1875 -0.5625 28.1875 -3 29 C-3 28.34 -3 27.68 -3 27 C-1.68 26.67 -0.36 26.34 1 26 C1 25.01 1 24.02 1 23 C1.99 23 2.98 23 4 23 C4 22.01 4 21.02 4 20 C5.65 19.67 7.3 19.34 9 19 C8.67 18.01 8.34 17.02 8 16 C7.071875 15.7834375 7.071875 15.7834375 6.125 15.5625 C3.2926285 14.8127546 2.55012483 13.40269349 1 11 C-0.32 12.32 -1.64 13.64 -3 15 C-2.814375 13.948125 -2.62875 12.89625 -2.4375 11.8125 C-2.04920669 8.42880118 -2.11752515 6.23574112 -3 3 C-1.68 3.33 -0.36 3.66 1 4 C0.67 2.68 0.34 1.36 0 0 Z " fill="#546D75" transform="translate(55,83)"/>
<path d="M0 0 C1.33599921 0.32248257 2.66893378 0.65772583 4 1 C5.32 1 6.64 1 8 1 C8.55429687 1.99902344 9.10859375 2.99804688 9.6796875 4.02734375 C10.41117338 5.33088911 11.14295982 6.63426584 11.875 7.9375 C12.23980469 8.59685547 12.60460938 9.25621094 12.98046875 9.93554688 C14.85417898 13.57936369 14.85417898 13.57936369 18 16 C19.20318828 20.383043 19.33820175 22.33567514 17.25 26.4375 C16.5075 27.283125 15.765 28.12875 15 29 C14.01 29 13.02 29 12 29 C12 28.34 12 27.68 12 27 C10.68 26.34 9.36 25.68 8 25 C8 24.34 8 23.68 8 23 C7.34 23 6.68 23 6 23 C4.5625 20.98828125 4.5625 20.98828125 3 18.3125 C2.484375 17.44238281 1.96875 16.57226562 1.4375 15.67578125 C-1.48942253 10.22756948 -2.30847885 7.18553639 -1 1 C-0.67 0.67 -0.34 0.34 0 0 Z " fill="#23464E" transform="translate(12,96)"/>
<path d="M0 0 C8.64240157 0.98673089 15.42210145 3.79446468 23 8 C23 8.66 23 9.32 23 10 C23.99 10.33 24.98 10.66 26 11 C25.67 11.66 25.34 12.32 25 13 C24.34 13 23.68 13 23 13 C22.67 13.99 22.34 14.98 22 16 C19 18 19 18 16.5625 17.8125 C14 17 14 17 12.25 15.625 C8.83811087 13.16085785 4.99298031 12.22754835 1 11 C-1 10.33333333 -3 9.66666667 -5 9 C-5.3125 6.6875 -5.3125 6.6875 -5 4 C-2.5 2.25 -2.5 2.25 0 1 C0 0.67 0 0.34 0 0 Z " fill="#23474E" transform="translate(88,17)"/>
<path d="M0 0 C0.66 0.66 1.32 1.32 2 2 C4.10820797 1.6814823 4.10820797 1.6814823 6 1 C6.66 2.32 7.32 3.64 8 5 C6.68 5.33 5.36 5.66 4 6 C7.42577464 9.84958181 11.34542247 12.19384631 15.75 14.75 C16.44738281 15.16121094 17.14476563 15.57242188 17.86328125 15.99609375 C19.57234691 17.00280366 21.28574596 18.00215064 23 19 C22.34 19.33 21.68 19.66 21 20 C20.46375 19.67 19.9275 19.34 19.375 19 C14.98808942 17.15287976 10.4155458 18.5281514 6 20 C6 20.66 6 21.32 6 22 C7.3921875 21.7525 7.3921875 21.7525 8.8125 21.5 C12 21 12 21 15 21 C16.67099977 20.68911632 18.33871537 20.35919668 20 20 C18.68 22.64 17.36 25.28 16 28 C11.24518354 27.42365861 8.02951788 25.44931479 4 23 C4 22.34 4 21.68 4 21 C3.236875 20.731875 2.47375 20.46375 1.6875 20.1875 C-0.91245703 19.03868178 -2.38885423 18.32721056 -4 16 C-3.875 13.9375 -3.875 13.9375 -3 12 C-2.01 11.34 -1.02 10.68 0 10 C-0.66 9.67 -1.32 9.34 -2 9 C-2 9.66 -2 10.32 -2 11 C-2.66 11 -3.32 11 -4 11 C-3.39301257 6.87248551 -1.96189209 3.6678852 0 0 Z M2 7 C1.67 7.66 1.34 8.32 1 9 C1.66 9 2.32 9 3 9 C2.67 8.34 2.34 7.68 2 7 Z " fill="#24474F" transform="translate(35,114)"/>
<path d="M0 0 C2.125 1.1875 2.125 1.1875 2.9375 3.3125 C2.999375 3.93125 3.06125 4.55 3.125 5.1875 C4.115 4.8575 5.105 4.5275 6.125 4.1875 C8.125 4.1875 8.125 4.1875 11.125 5.1875 C10.609375 5.97125 10.09375 6.755 9.5625 7.5625 C9.088125 8.42875 8.61375 9.295 8.125 10.1875 C8.95833333 12.35416667 8.95833333 12.35416667 11.125 13.1875 C11.455 13.8475 11.785 14.5075 12.125 15.1875 C10.578125 16.3984375 10.578125 16.3984375 8.125 17.1875 C5.51984836 16.17962459 3.29652464 15.15122907 0.875 13.8125 C0.2253125 13.46960938 -0.424375 13.12671875 -1.09375 12.7734375 C-2.69510131 11.92566328 -4.28611444 11.05841321 -5.875 10.1875 C-5.20833333 7.52083333 -4.54166667 4.85416667 -3.875 2.1875 C-4.6175 2.538125 -5.36 2.88875 -6.125 3.25 C-9.08635857 4.25955406 -10.00453867 4.14432044 -12.875 3.1875 C-13.865 3.1875 -14.855 3.1875 -15.875 3.1875 C-15.875 2.5275 -15.875 1.8675 -15.875 1.1875 C-10.03308391 -2.37464396 -6.3887047 -1.8055035 0 0 Z " fill="#103C45" transform="translate(56.875,132.8125)"/>
<path d="M0 0 C3.62493334 -0.05787784 7.24974857 -0.0935542 10.875 -0.125 C11.90753906 -0.14175781 12.94007812 -0.15851563 14.00390625 -0.17578125 C14.99003906 -0.18222656 15.97617188 -0.18867187 16.9921875 -0.1953125 C18.35899658 -0.21102295 18.35899658 -0.21102295 19.75341797 -0.22705078 C22 0 22 0 24 2 C22.84233722 4.79157924 22.28289621 6.12447573 20 8 C15.90726723 8.78539573 11.89848545 8.5626925 7.75 8.375 C6.06003906 8.33439453 6.06003906 8.33439453 4.3359375 8.29296875 C1.55535763 8.22227604 -1.22135359 8.1236504 -4 8 C-2.68 5.36 -1.36 2.72 0 0 Z " fill="#113C44" transform="translate(101,81)"/>
<path d="M0 0 C0.61875 0.804375 1.2375 1.60875 1.875 2.4375 C3.74164041 5.03874519 3.74164041 5.03874519 6 6 C7.20318828 10.383043 7.33820175 12.33567514 5.25 16.4375 C4.5075 17.283125 3.765 18.12875 3 19 C2.01 19 1.02 19 0 19 C0 18.34 0 17.68 0 17 C-1.32 16.34 -2.64 15.68 -4 15 C-4 14.34 -4 13.68 -4 13 C-4.66 13 -5.32 13 -6 13 C-7.65 9.7 -9.3 6.4 -11 3 C-10.34 3 -9.68 3 -9 3 C-9 3.66 -9 4.32 -9 5 C-8.01 5 -7.02 5 -6 5 C-5.67 5.99 -5.34 6.98 -5 8 C-4.01 7.67 -3.02 7.34 -2 7 C-2 6.34 -2 5.68 -2 5 C-1.34 5 -0.68 5 0 5 C0 3.35 0 1.7 0 0 Z " fill="#395C62" transform="translate(24,106)"/>
<path d="M0 0 C0.66 0.33 1.32 0.66 2 1 C0.9024777 3.99324263 0.32317108 4.84610901 -2.625 6.25 C-3.800625 6.62125 -3.800625 6.62125 -5 7 C-5 7.99 -5 8.98 -5 10 C-4.34 10.33 -3.68 10.66 -3 11 C-3 12.65 -3 14.3 -3 16 C-2.34 16 -1.68 16 -1 16 C-0.67 14.35 -0.34 12.7 0 11 C1.65 11 3.3 11 5 11 C4.67 11.66 4.34 12.32 4 13 C3.34 13 2.68 13 2 13 C2 13.66 2 14.32 2 15 C1.34 15 0.68 15 0 15 C-0.268125 15.639375 -0.53625 16.27875 -0.8125 16.9375 C-2 19 -2 19 -5 20 C-5.144375 20.639375 -5.28875 21.27875 -5.4375 21.9375 C-6 24 -6 24 -8.0625 25.25 C-8.701875 25.4975 -9.34125 25.745 -10 26 C-10.66 24.68 -11.32 23.36 -12 22 C-10.02 19.36 -8.04 16.72 -6 14 C-6.66 14 -7.32 14 -8 14 C-8 13.01 -8 12.02 -8 11 C-8.99 11.66 -9.98 12.32 -11 13 C-10.34 13.33 -9.68 13.66 -9 14 C-9.99 14.66 -10.98 15.32 -12 16 C-12.99 15.67 -13.98 15.34 -15 15 C-15.33 15.99 -15.66 16.98 -16 18 C-16.33 17.34 -16.66 16.68 -17 16 C-16.67 15.34 -16.34 14.68 -16 14 C-15.34 14 -14.68 14 -14 14 C-13.731875 13.360625 -13.46375 12.72125 -13.1875 12.0625 C-12 10 -12 10 -9 9 C-9 8.34 -9 7.68 -9 7 C-7.03125 5.2734375 -7.03125 5.2734375 -4.5 3.375 C-3.24703125 2.42753906 -3.24703125 2.42753906 -1.96875 1.4609375 C-1.3190625 0.97882812 -0.669375 0.49671875 0 0 Z " fill="#35565C" transform="translate(32,22)"/>
<path d="M0 0 C1 5.75 1 5.75 1 8 C1.3403125 9.299375 1.3403125 9.299375 1.6875 10.625 C2.10956901 15.1833453 0.80179635 17.81983247 -1 22 C-1.99 22 -2.98 22 -4 22 C-4.66 20.35 -5.32 18.7 -6 17 C-5.34 16.34 -4.68 15.68 -4 15 C-4.29369827 13.65737935 -4.6278958 12.32303717 -5 11 C-4.67 10.34 -4.34 9.68 -4 9 C-7.58327753 7.99782936 -7.58327753 7.99782936 -11 9 C-10.67 6.69 -10.34 4.38 -10 2 C-6.49223216 0.39644899 -3.85645121 -0.22036864 0 0 Z " fill="#123B45" transform="translate(92,52)"/>
<path d="M0 0 C0.66 0.33 1.32 0.66 2 1 C1.360625 1.350625 0.72125 1.70125 0.0625 2.0625 C-2.82163832 4.77184206 -2.7100822 7.15858911 -3 11 C-1.02 10.34 0.96 9.68 3 9 C3 9.66 3 10.32 3 11 C3.66 11.33 4.32 11.66 5 12 C2.79875692 13.18203738 0.59058171 14.34540108 -1.625 15.5 C-2.24246094 15.83386719 -2.85992187 16.16773438 -3.49609375 16.51171875 C-7.51512794 18.58469428 -10.48941245 19.38860447 -15 19 C-15 18.67 -15 18.34 -15 18 C-13.35 17.67 -11.7 17.34 -10 17 C-10.33 16.01 -10.66 15.02 -11 14 C-11.66 14 -12.32 14 -13 14 C-12.67 13.01 -12.34 12.02 -12 11 C-11.34 11 -10.68 11 -10 11 C-10 10.01 -10 9.02 -10 8 C-9.34 8 -8.68 8 -8 8 C-8 6.02 -8 4.04 -8 2 C-7.34 1.67 -6.68 1.34 -6 1 C-6 1.66 -6 2.32 -6 3 C-4.576875 2.2265625 -4.576875 2.2265625 -3.125 1.4375 C-2.09375 0.963125 -1.0625 0.48875 0 0 Z " fill="#284B52" transform="translate(82,132)"/>
<path d="M0 0 C4.455 0.99 4.455 0.99 9 2 C9.83360594 12.36053092 10.12288464 22.6094206 10 33 C7.90647024 29.56632144 7.76562388 26.90636407 7.8046875 22.921875 C7.81113281 21.76171875 7.81757812 20.6015625 7.82421875 19.40625 C7.84097656 18.1996875 7.85773438 16.993125 7.875 15.75 C7.88402344 14.52796875 7.89304687 13.3059375 7.90234375 12.046875 C7.92590487 9.03105218 7.95880294 6.01562508 8 3 C7.27683594 3.54140625 7.27683594 3.54140625 6.5390625 4.09375 C5.90742187 4.5578125 5.27578125 5.021875 4.625 5.5 C3.68527344 6.19609375 3.68527344 6.19609375 2.7265625 6.90625 C1 8 1 8 -1 8 C-0.95399658 8.9286084 -0.90799316 9.8572168 -0.8605957 10.81396484 C-0.69745655 14.25389513 -0.54804041 17.69384947 -0.40795898 21.13476562 C-0.34446179 22.62491962 -0.27547509 24.11485011 -0.20092773 25.60449219 C-0.09481729 27.74379266 -0.00836747 29.88311605 0.07421875 32.0234375 C0.16062622 33.95582275 0.16062622 33.95582275 0.2487793 35.92724609 C0.16668213 36.94125488 0.08458496 37.95526367 0 39 C-0.99 39.66 -1.98 40.32 -3 41 C-3.99 40.67 -4.98 40.34 -6 40 C-6.6875 37.9375 -6.6875 37.9375 -7 36 C-6.01 36.33 -5.02 36.66 -4 37 C-3.96559814 36.10692139 -3.93119629 35.21384277 -3.89575195 34.29370117 C-3.75649672 30.97683578 -3.59568074 27.66247964 -3.42016602 24.34741211 C-3.34867663 22.91324744 -3.28577903 21.47862742 -3.23168945 20.04370117 C-3.1523662 17.9791528 -3.04212378 15.91822135 -2.92578125 13.85546875 C-2.86817627 12.61434326 -2.81057129 11.37321777 -2.7512207 10.09448242 C-2 7 -2 7 0.55786133 5.0715332 C1.76671997 4.54112427 1.76671997 4.54112427 3 4 C2.505 3.525625 2.01 3.05125 1.5 2.5625 C0 1 0 1 0 0 Z " fill="#93A1A8" transform="translate(66,98)"/>
<path d="M0 0 C0.66 0.33 1.32 0.66 2 1 C1.67 1.721875 1.34 2.44375 1 3.1875 C-0.00603529 6.01697427 -0.16977402 8.02895466 0 11 C-0.66 11 -1.32 11 -2 11 C-2 11.99 -2 12.98 -2 14 C-3.98 14 -5.96 14 -8 14 C-8.33 15.65 -8.66 17.3 -9 19 C-9.66 19 -10.32 19 -11 19 C-11 17.35 -11 15.7 -11 14 C-11.99 13.67 -12.98 13.34 -14 13 C-13.8125 11.125 -13.8125 11.125 -13 9 C-11.33927151 8.31867549 -9.672233 7.65257873 -8 7 C-7.31731862 5.67479497 -6.6492959 4.34187818 -6 3 C-4 2.375 -4 2.375 -2 2 C-1.34 1.34 -0.68 0.68 0 0 Z " fill="#133B43" transform="translate(40,19)"/>
<path d="M0 0 C0.66 0.66 1.32 1.32 2 2 C4.10820797 1.6814823 4.10820797 1.6814823 6 1 C6.66 2.32 7.32 3.64 8 5 C6.68 5.33 5.36 5.66 4 6 C7.42577464 9.84958181 11.34542247 12.19384631 15.75 14.75 C16.44738281 15.16121094 17.14476563 15.57242188 17.86328125 15.99609375 C19.57234691 17.00280366 21.28574596 18.00215064 23 19 C22.34 19.33 21.68 19.66 21 20 C20.443125 19.690625 19.88625 19.38125 19.3125 19.0625 C16.90106315 17.72940933 16.90106315 17.72940933 13.5625 18.25 C10 18 10 18 8.4375 16.7421875 C5 12.69921875 5 12.69921875 5 10 C4.21625 10.20625 3.4325 10.4125 2.625 10.625 C1.75875 10.74875 0.8925 10.8725 0 11 C-0.66 10.34 -1.32 9.68 -2 9 C-2 9.66 -2 10.32 -2 11 C-2.66 11 -3.32 11 -4 11 C-3.39301257 6.87248551 -1.96189209 3.6678852 0 0 Z M2 7 C1.67 7.66 1.34 8.32 1 9 C1.66 9 2.32 9 3 9 C2.67 8.34 2.34 7.68 2 7 Z " fill="#586D71" transform="translate(35,114)"/>
<path d="M0 0 C0.66 0.33 1.32 0.66 2 1 C0.68 1.99 -0.64 2.98 -2 4 C1.18490007 4.2773501 1.18490007 4.2773501 4 2 C5.32 2 6.64 2 8 2 C8 2.66 8 3.32 8 4 C7.34 4 6.68 4 6 4 C6 4.99 6 5.98 6 7 C7.32 7.33 8.64 7.66 10 8 C7.03 10.31 4.06 12.62 1 15 C0.34 14.67 -0.32 14.34 -1 14 C-0.34 12.35 0.32 10.7 1 9 C-1.39719432 8.32041397 -1.39719432 8.32041397 -4 8 C-4.66 8.66 -5.32 9.32 -6 10 C-6.33 9.67 -6.66 9.34 -7 9 C-9.02919843 9.25723969 -9.02919843 9.25723969 -11 10 C-11.33 10.66 -11.66 11.32 -12 12 C-13.98 12 -15.96 12 -18 12 C-14.43450189 9.00894325 -10.79480214 6.60887166 -6.75 4.3125 C-3.16722798 2.4440632 -3.16722798 2.4440632 0 0 Z " fill="#2C4E57" transform="translate(102,120)"/>
<path d="M0 0 C0.33 0.66 0.66 1.32 1 2 C1.66 2 2.32 2 3 2 C3.66 2.66 4.32 3.32 5 4 C5.66 4.33 6.32 4.66 7 5 C7.66 3.68 8.32 2.36 9 1 C9.99 1 10.98 1 12 1 C12.66 3.97 13.32 6.94 14 10 C13.34 10 12.68 10 12 10 C11.67 10.66 11.34 11.32 11 12 C9.68 11.67 8.36 11.34 7 11 C6.34 12.65 5.68 14.3 5 16 C2.70311431 13.70311431 2.28148697 12.21071829 1.375 9.125 C1.11460938 8.26132813 0.85421875 7.39765625 0.5859375 6.5078125 C0 4 0 4 0 0 Z M9 12 C11 13 11 13 11 13 Z " fill="#17434B" transform="translate(5,86)"/>
<path d="M0 0 C0.33 0.99 0.66 1.98 1 3 C1.66 3 2.32 3 3 3 C3 2.34 3 1.68 3 1 C4.32 0.67 5.64 0.34 7 0 C8.125 3.75 8.125 3.75 7 6 C7.99 6 8.98 6 10 6 C9.34 8.31 8.68 10.62 8 13 C6.35 12.01 4.7 11.02 3 10 C2.34 10.66 1.68 11.32 1 12 C-1.625 12.125 -1.625 12.125 -4 12 C-4 13.65 -4 15.3 -4 17 C-4.99 17 -5.98 17 -7 17 C-6.01188057 13.541582 -4.95865538 10.9386095 -2.9375 7.9375 C-1.07831896 5.11874165 -0.38898461 3.30636921 0 0 Z " fill="#2D4E58" transform="translate(121,93)"/>
<path d="M0 0 C1.32 0.33 2.64 0.66 4 1 C4.65800684 5.38671224 3.81492008 7.74277186 1.3125 11.25 C-1.15428835 14.29857805 -3.05276358 16.14654348 -7 17 C-7.99 17 -8.98 17 -10 17 C-10.33 15.68 -10.66 14.36 -11 13 C-10.01 13 -9.02 13 -8 13 C-8 12.34 -8 11.68 -8 11 C-7.01 10.67 -6.02 10.34 -5 10 C-1.49041152 7.47309629 -0.99348834 4.05037554 0 0 Z " fill="#475A63" transform="translate(82,82)"/>
<path d="M0 0 C12.54 0 25.08 0 38 0 C38 0.33 38 0.66 38 1 C27.11 1 16.22 1 5 1 C5 2.65 5 4.3 5 6 C3.67434133 7.01015191 2.34066568 8.00985187 1 9 C0.3049261 11.49407252 0.3049261 11.49407252 0.25 14.1875 C0.19328125 15.08855469 0.1365625 15.98960938 0.078125 16.91796875 C0.03945313 17.94857422 0.03945313 17.94857422 0 19 C2.64 19.33 5.28 19.66 8 20 C8 20.33 8 20.66 8 21 C1.84765625 21.09765625 1.84765625 21.09765625 0 21 C-1.9395114 19.0604886 -1.13256629 16.1879288 -1.13671875 13.61132812 C-1.13091797 12.3496582 -1.13091797 12.3496582 -1.125 11.0625 C-1.12886719 10.22525391 -1.13273437 9.38800781 -1.13671875 8.52539062 C-1.13542969 7.72423828 -1.13414063 6.92308594 -1.1328125 6.09765625 C-1.13168457 5.36039307 -1.13055664 4.62312988 -1.12939453 3.86352539 C-1 2 -1 2 0 0 Z " fill="#5B7D82" transform="translate(30,46)"/>
<path d="M0 0 C2.1385485 2.1385485 2.42655063 3.13275314 3 6 C0 8 0 8 -3 8 C-3 9.65 -3 11.3 -3 13 C-4.32 13 -5.64 13 -7 13 C-7 12.01 -7 11.02 -7 10 C-6.34 10 -5.68 10 -5 10 C-5 9.34 -5 8.68 -5 8 C-7.02045442 8.60183749 -9.02111039 9.27306096 -11 10 C-11.33 10.66 -11.66 11.32 -12 12 C-13.32 11.34 -14.64 10.68 -16 10 C-14.8803014 8.99406757 -13.7540588 7.9954151 -12.625 7 C-11.99851562 6.443125 -11.37203125 5.88625 -10.7265625 5.3125 C-9 4 -9 4 -7 4 C-6.67 3.34 -6.34 2.68 -6 2 C-4.68 2.33 -3.36 2.66 -2 3 C-1.34 2.01 -0.68 1.02 0 0 Z " fill="#123B42" transform="translate(115,114)"/>
<path d="M0 0 C1.41047468 2.63288608 2.63856763 5.01818295 3 8 C1.88295062 11.6304105 0.26598363 14.94963743 -2 18 C-3.32 18 -4.64 18 -6 18 C-6 18.66 -6 19.32 -6 20 C-6.66 20 -7.32 20 -8 20 C-7.67 17.36 -7.34 14.72 -7 12 C-5.35 11.34 -3.7 10.68 -2 10 C-2.04125 9.0925 -2.0825 8.185 -2.125 7.25 C-2.00468444 4.1217954 -1.6085292 2.61385994 0 0 Z " fill="#153A42" transform="translate(50,86)"/>
<path d="M0 0 C3.3 0 6.6 0 10 0 C9.67 1.32 9.34 2.64 9 4 C9.99 4 10.98 4 12 4 C12 3.34 12 2.68 12 2 C13.32 2 14.64 2 16 2 C16 2.66 16 3.32 16 4 C15.33613281 4.32613281 14.67226562 4.65226562 13.98828125 4.98828125 C9.55939564 7.18009471 5.18006181 9.35262752 1 12 C1.33 10.02 1.66 8.04 2 6 C1.34 6 0.68 6 0 6 C0.185625 5.38125 0.37125 4.7625 0.5625 4.125 C1.23686176 1.95839822 1.23686176 1.95839822 0 0 Z " fill="#2D5058" transform="translate(68,48)"/>
<path d="M0 0 C2.92879371 0.62759865 5.36095629 1.58622659 8 3 C8 4.32 8 5.64 8 7 C6.35 7 4.7 7 3 7 C3 7.66 3 8.32 3 9 C2.34 9 1.68 9 1 9 C0.34 10.32 -0.32 11.64 -1 13 C-1.99 13 -2.98 13 -4 13 C-3.67 11.68 -3.34 10.36 -3 9 C-3.99 8.34 -4.98 7.68 -6 7 C-5.34 7 -4.68 7 -4 7 C-3.71125 6.401875 -3.4225 5.80375 -3.125 5.1875 C-2 3 -2 3 0 0 Z " fill="#6E8089" transform="translate(60,64)"/>
<path d="M0 0 C7.5708819 1.77037733 14.18268212 4.25860862 21 8 C17.46439735 9.76780132 13.57741847 7.51394916 9.9453125 6.3984375 C6.97981217 5.6775467 6.97981217 5.6775467 4.7421875 7.4140625 C4.16726562 7.93742187 3.59234375 8.46078125 3 9 C2.34 9 1.68 9 1 9 C1 10.32 1 11.64 1 13 C-2.63 12.67 -6.26 12.34 -10 12 C-10 11.67 -10 11.34 -10 11 C-8.741875 10.938125 -7.48375 10.87625 -6.1875 10.8125 C-3.98895924 10.61118596 -3.98895924 10.61118596 -2 10 C-0.1375562 7.59141286 -0.1375562 7.59141286 1 5 C1.99 4.67 2.98 4.34 4 4 C2.68 3.34 1.36 2.68 0 2 C0 1.34 0 0.68 0 0 Z " fill="#6F8387" transform="translate(82,12)"/>
<path d="M0 0 C0.66 0.33 1.32 0.66 2 1 C1.67 1.66 1.34 2.32 1 3 C1.33 3.33 1.66 3.66 2 4 C-0.04936626 8.84395662 -3.04048394 13.04201437 -7.8125 15.375 C-8.534375 15.58125 -9.25625 15.7875 -10 16 C-9.25 8.375 -9.25 8.375 -7 5 C-4.875 4.3125 -4.875 4.3125 -3 4 C-3 3.01 -3 2.02 -3 1 C-2.01 0.67 -1.02 0.34 0 0 Z " fill="#113A43" transform="translate(24,32)"/>
<path d="M0 0 C0.33 0.66 0.66 1.32 1 2 C0.01 2.33 -0.98 2.66 -2 3 C-2.66 4.65 -3.32 6.3 -4 8 C-9.61 8 -15.22 8 -21 8 C-21.33 7.34 -21.66 6.68 -22 6 C-17.71 6 -13.42 6 -9 6 C-9.33 4.02 -9.66 2.04 -10 0 C-6.64338305 -1.67830848 -3.63864406 -0.6353188 0 0 Z " fill="#143840" transform="translate(86,15)"/>
<path d="M0 0 C1.98 0 3.96 0 6 0 C6.33 1.32 6.66 2.64 7 4 C8.3921875 3.7525 8.3921875 3.7525 9.8125 3.5 C13 3 13 3 16 3 C17.67099977 2.68911632 19.33871537 2.35919668 21 2 C19.68 4.64 18.36 7.28 17 10 C12.24518354 9.42365861 9.02951788 7.44931479 5 5 C5 4.34 5 3.68 5 3 C2.525 2.01 2.525 2.01 0 1 C0 0.67 0 0.34 0 0 Z " fill="#39575D" transform="translate(34,132)"/>
<path d="M0 0 C2.125 1.1875 2.125 1.1875 2.9375 3.3125 C2.999375 3.93125 3.06125 4.55 3.125 5.1875 C0.65 4.6925 0.65 4.6925 -1.875 4.1875 C-3.36 6.6625 -3.36 6.6625 -4.875 9.1875 C-4.875 6.56636292 -4.56207555 4.67814888 -3.875 2.1875 C-4.6175 2.538125 -5.36 2.88875 -6.125 3.25 C-9.08635857 4.25955406 -10.00453867 4.14432044 -12.875 3.1875 C-13.865 3.1875 -14.855 3.1875 -15.875 3.1875 C-15.875 2.5275 -15.875 1.8675 -15.875 1.1875 C-10.03308391 -2.37464396 -6.3887047 -1.8055035 0 0 Z " fill="#113A41" transform="translate(56.875,132.8125)"/>
<path d="M0 0 C1.5625 1 1.5625 1 3 3 C2.78648606 7.48379277 2.41677686 11.13315702 0 15 C-0.99 15 -1.98 15 -3 15 C-3.66 13.35 -4.32 11.7 -5 10 C-4.34 9.34 -3.68 8.68 -3 8 C-3.20625 7.38125 -3.4125 6.7625 -3.625 6.125 C-3.74875 5.42375 -3.8725 4.7225 -4 4 C-2.0625 1.75 -2.0625 1.75 0 0 Z " fill="#133940" transform="translate(91,59)"/>
<path d="M0 0 C-0.99 0.495 -0.99 0.495 -2 1 C-2 1.66 -2 2.32 -2 3 C-1.34 3.33 -0.68 3.66 0 4 C-0.99 4 -1.98 4 -3 4 C-3.33 4.99 -3.66 5.98 -4 7 C-7.5625 8.1875 -7.5625 8.1875 -11 9 C-12 6 -12 6 -11 3 C-12.32 3.33 -13.64 3.66 -15 4 C-14.67 3.01 -14.34 2.02 -14 1 C-8.96783018 -1.01286793 -5.27369782 -1.07626486 0 0 Z " fill="#113B42" transform="translate(105,128)"/>
<path d="M0 0 C3.375 0.25 3.375 0.25 7 1 C8.125 3 8.125 3 9 5 C11.55519921 5.81171228 11.55519921 5.81171228 14 6 C13.34 7.32 12.68 8.64 12 10 C12 9.34 12 8.68 12 8 C11.401875 8.495 10.80375 8.99 10.1875 9.5 C8 11 8 11 5 11 C5 11.66 5 12.32 5 13 C4.34 12.67 3.68 12.34 3 12 C3 11.01 3 10.02 3 9 C2.05021103 6.84971696 2.05021103 6.84971696 1 5 C2.32 5 3.64 5 5 5 C5 4.34 5 3.68 5 3 C4.01 3.33 3.02 3.66 2 4 C1.34 3.67 0.68 3.34 0 3 C0 2.01 0 1.02 0 0 Z " fill="#1C3A42" transform="translate(72,74)"/>
<path d="M0 0 C0.66 0.33 1.32 0.66 2 1 C-1.94126296 7.44933938 -6.29544957 13.00341287 -12 18 C-12.33 18 -12.66 18 -13 18 C-13.125 15.625 -13.125 15.625 -13 13 C-12.34 12.34 -11.68 11.68 -11 11 C-9.68 11 -8.36 11 -7 11 C-7.66 9.68 -8.32 8.36 -9 7 C-8.34 7 -7.68 7 -7 7 C-7 6.34 -7 5.68 -7 5 C-6.01 5 -5.02 5 -4 5 C-4 4.34 -4 3.68 -4 3 C-3.01 2.67 -2.02 2.34 -1 2 C-0.67 1.34 -0.34 0.68 0 0 Z " fill="#425F63" transform="translate(125,109)"/>
<path d="M0 0 C3.875 4.75 3.875 4.75 5 7 C4.34 7 3.68 7 3 7 C3 7.66 3 8.32 3 9 C3.99 9.33 4.98 9.66 6 10 C4.25 15.75 4.25 15.75 2 18 C0.875 12.25 0.875 12.25 2 10 C0.35 10 -1.3 10 -3 10 C-3.66 8.35 -4.32 6.7 -5 5 C-4.34 4.67 -3.68 4.34 -3 4 C-3 4.66 -3 5.32 -3 6 C-1.68 6.33 -0.36 6.66 1 7 C1 5.68 1 4.36 1 3 C0.34 3 -0.32 3 -1 3 C-0.67 2.01 -0.34 1.02 0 0 Z M-2 3 C-1.34 3.66 -0.68 4.32 0 5 C-0.66 5 -1.32 5 -2 5 C-2 4.34 -2 3.68 -2 3 Z " fill="#6B8188" transform="translate(84,70)"/>
<path d="M0 0 C0.33 0 0.66 0 1 0 C1.21686645 4.37758788 1.41375794 8.7554762 1.59204102 13.13476562 C1.65553821 14.62491962 1.72452491 16.11485011 1.79907227 17.60449219 C1.90518271 19.74379266 1.99163253 21.88311605 2.07421875 24.0234375 C2.13182373 25.31169434 2.18942871 26.59995117 2.2487793 27.92724609 C2.16668213 28.94125488 2.08458496 29.95526367 2 31 C1.01 31.66 0.02 32.32 -1 33 C-1.99 32.67 -2.98 32.34 -4 32 C-4.6875 29.9375 -4.6875 29.9375 -5 28 C-4.01 28.33 -3.02 28.66 -2 29 C-1.34 19.43 -0.68 9.86 0 0 Z " fill="#66787E" transform="translate(64,106)"/>
<path d="M0 0 C0.99 0.33 1.98 0.66 3 1 C3.35412344 2.32796291 3.68521554 3.66216607 4 5 C5.47890069 6.73026102 5.47890069 6.73026102 7 8 C5.38405168 10.04119788 3.7143618 12.04072937 2 14 C1.34 14 0.68 14 0 14 C-0.268125 13.401875 -0.53625 12.80375 -0.8125 12.1875 C-1.98493467 10.02775192 -3.19369282 8.64209744 -5 7 C-2.525 7.495 -2.525 7.495 0 8 C0 5.36 0 2.72 0 0 Z " fill="#1A3C44" transform="translate(68,80)"/>
<path d="M0 0 C0.99 0.33 1.98 0.66 3 1 C4.2676439 3.73030993 4.04311598 4.87352646 3.0625 7.75 C2.711875 8.4925 2.36125 9.235 2 10 C3.32 10 4.64 10 6 10 C5.34 11.32 4.68 12.64 4 14 C3.01 13.01 2.02 12.02 1 11 C-0.32 12.32 -1.64 13.64 -3 15 C-2.814375 13.948125 -2.62875 12.89625 -2.4375 11.8125 C-2.04920669 8.42880118 -2.11752515 6.23574112 -3 3 C-1.68 3.33 -0.36 3.66 1 4 C0.67 2.68 0.34 1.36 0 0 Z " fill="#72848C" transform="translate(55,83)"/>
<path d="M0 0 C2 3 2 3 1.625 5.6875 C1.41875 6.450625 1.2125 7.21375 1 8 C0.34 8 -0.32 8 -1 8 C-1.33 8.99 -1.66 9.98 -2 11 C-3.65 10.67 -5.3 10.34 -7 10 C-7.33 8.02 -7.66 6.04 -8 4 C-6.02 3.01 -4.04 2.02 -2 1 C-1.67 1.33 -1.34 1.66 -1 2 C-0.67 1.34 -0.34 0.68 0 0 Z " fill="#123B40" transform="translate(126,101)"/>
<path d="M0 0 C0 0.66 0 1.32 0 2 C-0.66 2 -1.32 2 -2 2 C-2.33 3.32 -2.66 4.64 -3 6 C-3.99 6 -4.98 6 -6 6 C-6 6.66 -6 7.32 -6 8 C-7.26607607 8.53229326 -8.53810412 9.05044544 -9.8125 9.5625 C-10.52019531 9.85253906 -11.22789063 10.14257812 -11.95703125 10.44140625 C-14 11 -14 11 -17 10 C-15.68 9.01 -14.36 8.02 -13 7 C-13.66 7 -14.32 7 -15 7 C-15.33 5.68 -15.66 4.36 -16 3 C-15.175 3.433125 -14.35 3.86625 -13.5 4.3125 C-9.48494237 5.10117203 -9.01693389 4.75327627 -5.75 2.625 C-5.08484375 2.14289062 -4.4196875 1.66078125 -3.734375 1.1640625 C-2 0 -2 0 0 0 Z " fill="#5F787C" transform="translate(99,43)"/>
<path d="M0 0 C0.66 0.33 1.32 0.66 2 1 C1.67 1.66 1.34 2.32 1 3 C3.97 3.495 3.97 3.495 7 4 C7.33 5.32 7.66 6.64 8 8 C6 8 6 8 4.375 6.5 C3.92125 6.005 3.4675 5.51 3 5 C3.185625 5.94875 3.37125 6.8975 3.5625 7.875 C4 11 4 11 3 13 C1.68 12.67 0.36 12.34 -1 12 C-0.34 10.02 0.32 8.04 1 6 C0.01 5.67 -0.98 5.34 -2 5 C-2 4.01 -2 3.02 -2 2 C-1.34 2 -0.68 2 0 2 C0 1.34 0 0.68 0 0 Z " fill="#627C85" transform="translate(65,75)"/>
<path d="M0 0 C1.33332095 2.6666419 0.67102033 4.16680303 0 7 C-0.66 7 -1.32 7 -2 7 C-2.99 8.485 -2.99 8.485 -4 10 C-4.99 10 -5.98 10 -7 10 C-7 10.66 -7 11.32 -7 12 C-7.99 11.67 -8.98 11.34 -10 11 C-8.52307692 6.32307692 -8.52307692 6.32307692 -5.875 4.6875 C-4.946875 4.3471875 -4.946875 4.3471875 -4 4 C-4 3.34 -4 2.68 -4 2 C-2.68 1.34 -1.36 0.68 0 0 Z " fill="#586E76" transform="translate(81,83)"/>
<path d="M0 0 C2.31 1.65 4.62 3.3 7 5 C7.99 3.35 8.98 1.7 10 0 C10.66 0.33 11.32 0.66 12 1 C12.625 3.0625 12.625 3.0625 13 5 C12.01 5.33 11.02 5.66 10 6 C10.66 7.65 11.32 9.3 12 11 C12.66 11 13.32 11 14 11 C14 11.66 14 12.32 14 13 C13.01 12.67 12.02 12.34 11 12 C9.8125 9.4375 9.8125 9.4375 9 7 C7.6078125 7.1546875 7.6078125 7.1546875 6.1875 7.3125 C5.135625 7.209375 4.08375 7.10625 3 7 C1.11400657 4.61107499 0 3.08148442 0 0 Z " fill="#456065" transform="translate(76,63)"/>
<path d="M0 0 C0.66 0 1.32 0 2 0 C-0.13766171 7.244298 -3.22684019 13.46718285 -7 20 C-8.29862143 17.40275715 -8.52427843 14.8543294 -9 12 C-9.33 11.34 -9.66 10.68 -10 10 C-6.535 9.505 -6.535 9.505 -3 9 C-3 7.68 -3 6.36 -3 5 C-2.34 5 -1.68 5 -1 5 C-0.67 3.35 -0.34 1.7 0 0 Z " fill="#4A696E" transform="translate(101,48)"/>
<path d="M0 0 C1.65 0.33 3.3 0.66 5 1 C5 1.99 5 2.98 5 4 C4.34 4 3.68 4 3 4 C2.67 4.66 2.34 5.32 2 6 C1.34 5.67 0.68 5.34 0 5 C0 5.99 0 6.98 0 8 C-0.99 8 -1.98 8 -3 8 C-3 8.66 -3 9.32 -3 10 C-3.99 10 -4.98 10 -6 10 C-6.33 8.35 -6.66 6.7 -7 5 C-5.824375 4.87625 -5.824375 4.87625 -4.625 4.75 C-1.85250896 4.27193661 -1.85250896 4.27193661 -0.6875 1.9375 C-0.460625 1.298125 -0.23375 0.65875 0 0 Z " fill="#153B44" transform="translate(59,98)"/>
<path d="M0 0 C-0.33 2.31 -0.66 4.62 -1 7 C-1.33 6.01 -1.66 5.02 -2 4 C-2.99 4 -3.98 4 -5 4 C-4.67 4.99 -4.34 5.98 -4 7 C-4.99 7.495 -4.99 7.495 -6 8 C-6 7.34 -6 6.68 -6 6 C-6.66 6 -7.32 6 -8 6 C-7.67 7.65 -7.34 9.3 -7 11 C-8.6260287 10.93999894 -10.25101549 10.8512115 -11.875 10.75 C-13.23238281 10.68039063 -13.23238281 10.68039063 -14.6171875 10.609375 C-15.40351562 10.40828125 -16.18984375 10.2071875 -17 10 C-17.66 8.68 -18.32 7.36 -19 6 C-16.03 6.99 -13.06 7.98 -10 9 C-9.67 7.68 -9.34 6.36 -9 5 C-7.44140625 3.515625 -7.44140625 3.515625 -5.5625 2.25 C-4.63630859 1.60804687 -4.63630859 1.60804687 -3.69140625 0.953125 C-2 0 -2 0 0 0 Z " fill="#75898E" transform="translate(82,54)"/>
<path d="M0 0 C0.99 0.66 1.98 1.32 3 2 C2.34 2 1.68 2 1 2 C1.66 3.32 2.32 4.64 3 6 C3.66 6 4.32 6 5 6 C5.33 5.01 5.66 4.02 6 3 C6 3.66 6 4.32 6 5 C6.66 5 7.32 5 8 5 C8 5.66 8 6.32 8 7 C6.21118264 8.00508801 4.41885304 9.00392736 2.625 10 C1.62726563 10.556875 0.62953125 11.11375 -0.3984375 11.6875 C-3 13 -3 13 -5 13 C-5 12.34 -5 11.68 -5 11 C-4.01 11 -3.02 11 -2 11 C-2 10.34 -2 9.68 -2 9 C-1.34 9 -0.68 9 0 9 C0 8.01 0 7.02 0 6 C-0.99 5.67 -1.98 5.34 -3 5 C-2.01 3.35 -1.02 1.7 0 0 Z " fill="#4A666E" transform="translate(93,130)"/>
<path d="M0 0 C2.97 0.33 5.94 0.66 9 1 C9.33 2.32 9.66 3.64 10 5 C9.01 5.495 9.01 5.495 8 6 C8 5.34 8 4.68 8 4 C7.34 4 6.68 4 6 4 C6 4.66 6 5.32 6 6 C4.02 6 2.04 6 0 6 C0 4 0 2 0 0 Z " fill="#0F3D47" transform="translate(47,17)"/>
<path d="M0 0 C0.33 0.66 0.66 1.32 1 2 C0.0625 4.625 0.0625 4.625 -1 7 C-0.01 7.66 0.98 8.32 2 9 C1.67 9.99 1.34 10.98 1 12 C-5.70459519 7.88621444 -5.70459519 7.88621444 -6.9375 4.1875 C-6.9684375 3.1046875 -6.9684375 3.1046875 -7 2 C-6.030625 1.855625 -5.06125 1.71125 -4.0625 1.5625 C-1.13513227 1.32437659 -1.13513227 1.32437659 0 0 Z " fill="#324B53" transform="translate(65,81)"/>
<path d="M0 0 C1.65 0 3.3 0 5 0 C4.67 0.66 4.34 1.32 4 2 C3.34 2 2.68 2 2 2 C2 2.66 2 3.32 2 4 C1.34 4 0.68 4 0 4 C-0.268125 4.639375 -0.53625 5.27875 -0.8125 5.9375 C-2 8 -2 8 -5 9 C-5.3721042 10.32303717 -5.70630173 11.65737935 -6 13 C-6.99 13.495 -6.99 13.495 -8 14 C-8.33 12.35 -8.66 10.7 -9 9 C-7.35 8.67 -5.7 8.34 -4 8 C-3.67 6.68 -3.34 5.36 -3 4 C-2.34 4.33 -1.68 4.66 -1 5 C-0.67 3.35 -0.34 1.7 0 0 Z " fill="#6B8285" transform="translate(32,33)"/>
<path d="M0 0 C0.66 0.66 1.32 1.32 2 2 C2.99 1.34 3.98 0.68 5 0 C5.99 0 6.98 0 8 0 C7.4375 2.375 7.4375 2.375 6 5 C2.5625 6.25 2.5625 6.25 -1 7 C-1.99 7.33 -2.98 7.66 -4 8 C-2.25 2.25 -2.25 2.25 0 0 Z " fill="#51686D" transform="translate(51,98)"/>
<path d="M0 0 C2.31 0.33 4.62 0.66 7 1 C7.33 1.99 7.66 2.98 8 4 C8.66 4.66 9.32 5.32 10 6 C9.01 7.485 9.01 7.485 8 9 C7.34 9 6.68 9 6 9 C6 8.34 6 7.68 6 7 C5.195625 6.773125 4.39125 6.54625 3.5625 6.3125 C2.716875 5.879375 1.87125 5.44625 1 5 C0.1875 2.375 0.1875 2.375 0 0 Z M1 1 C1.66 1.66 2.32 2.32 3 3 C3 2.34 3 1.68 3 1 C2.34 1 1.68 1 1 1 Z " fill="#728990" transform="translate(70,67)"/>
<path d="M0 0 C0.33 0 0.66 0 1 0 C1.33 3.63 1.66 7.26 2 11 C3.32 11 4.64 11 6 11 C6 9.68 6 8.36 6 7 C6.66 7 7.32 7 8 7 C8 9.31 8 11.62 8 14 C2.25 14.125 2.25 14.125 0 13 C0 8.71 0 4.42 0 0 Z " fill="#1A363D" transform="translate(30,52)"/>
<path d="M0 0 C0.33 0.66 0.66 1.32 1 2 C1.94875 1.938125 2.8975 1.87625 3.875 1.8125 C4.90625 1.874375 5.9375 1.93625 7 2 C7.99 3.485 7.99 3.485 9 5 C12.465 4.505 12.465 4.505 16 4 C16.33 4.99 16.66 5.98 17 7 C15.453125 8.2109375 15.453125 8.2109375 13 9 C10.39484836 7.99212459 8.17152464 6.96372907 5.75 5.625 C5.1003125 5.28210938 4.450625 4.93921875 3.78125 4.5859375 C2.17989869 3.73816328 0.58888556 2.87091321 -1 2 C-0.67 1.34 -0.34 0.68 0 0 Z " fill="#41565E" transform="translate(52,141)"/>
<path d="M0 0 C3 2 3 2 3.5625 4.375 C3 7 3 7 0 9.3125 C-0.99 9.869375 -1.98 10.42625 -3 11 C-3.36923077 4.6 -3.36923077 4.6 -1.5 1.5625 C-1.005 1.046875 -0.51 0.53125 0 0 Z " fill="#26474E" transform="translate(128,49)"/>
<path d="M0 0 C3 1 3 1 4 3 C6.02463255 3.65213292 6.02463255 3.65213292 8 4 C8 4.99 8 5.98 8 7 C8.66 7 9.32 7 10 7 C10.33 8.32 10.66 9.64 11 11 C8 11 8 11 6 10 C6 9.34 6 8.68 6 8 C5.34 7.67 4.68 7.34 4 7 C1.45680431 4.86371562 0.5639291 3.27078876 0 0 Z M7 7 C7 7.66 7 8.32 7 9 C7.66 8.67 8.32 8.34 9 8 C8.34 7.67 7.68 7.34 7 7 Z " fill="#253C45" transform="translate(75,66)"/>
<path d="M0 0 C0.66 1.32 1.32 2.64 2 4 C1.34 4 0.68 4 0 4 C-0.33 7.3 -0.66 10.6 -1 14 C-2.32 13.67 -3.64 13.34 -5 13 C-4.48474397 7.71862571 -2.74522883 4.42778844 0 0 Z " fill="#324E53" transform="translate(14,40)"/>
<path d="M0 0 C0 0.66 0 1.32 0 2 C0.66 2.33 1.32 2.66 2 3 C0.68 3.33 -0.64 3.66 -2 4 C-1.01 5.485 -1.01 5.485 0 7 C-0.99 8.485 -0.99 8.485 -2 10 C-4.475 9.01 -4.475 9.01 -7 8 C-6.67 7.34 -6.34 6.68 -6 6 C-5.34 6 -4.68 6 -4 6 C-4.34786708 4.02463255 -4.34786708 4.02463255 -5 2 C-5.66 1.67 -6.32 1.34 -7 1 C-2.25 0 -2.25 0 0 0 Z " fill="#38545E" transform="translate(77,77)"/>
<path d="M0 0 C1.98 0.66 3.96 1.32 6 2 C2.25 5 2.25 5 0 5 C0 6.32 0 7.64 0 9 C-3.63 8.67 -7.26 8.34 -11 8 C-11 7.67 -11 7.34 -11 7 C-9.741875 6.938125 -8.48375 6.87625 -7.1875 6.8125 C-3.75515166 6.40547816 -3.27146878 6.33933598 -1 3.5 C0.06189845 1.29401762 0.06189845 1.29401762 0 0 Z " fill="#4C6B72" transform="translate(83,16)"/>
<path d="M0 0 C1.32 0 2.64 0 4 0 C4.66 0.99 5.32 1.98 6 3 C6.66 3 7.32 3 8 3 C8 3.66 8 4.32 8 5 C7.01 5.495 7.01 5.495 6 6 C6 6.66 6 7.32 6 8 C1.125 6.125 1.125 6.125 0 5 C-0.04063832 3.33382885 -0.042721 1.66611905 0 0 Z " fill="#29484E" transform="translate(20,116)"/>
<path d="M0 0 C0.61875 0.78375 1.2375 1.5675 1.875 2.375 C3.89858661 4.96837647 3.89858661 4.96837647 6 7 C2.7 7.33 -0.6 7.66 -4 8 C-1.125 1.125 -1.125 1.125 0 0 Z " fill="#11383F" transform="translate(108,48)"/>
<path d="M0 0 C1.32 0.33 2.64 0.66 4 1 C4.75 3.125 4.75 3.125 5 6 C3.0625 9.3125 3.0625 9.3125 1 12 C0.01 11.67 -0.98 11.34 -2 11 C-1.34 11 -0.68 11 0 11 C-0.33 10.01 -0.66 9.02 -1 8 C-0.01 8 0.98 8 2 8 C1.34 5.36 0.68 2.72 0 0 Z " fill="#4E666A" transform="translate(26,113)"/>
<path d="M0 0 C0.66 0 1.32 0 2 0 C2 0.99 2 1.98 2 3 C2.66 3.33 3.32 3.66 4 4 C2.87926138 4.83905565 1.75325453 5.67107831 0.625 6.5 C-0.31472656 7.19609375 -0.31472656 7.19609375 -1.2734375 7.90625 C-3 9 -3 9 -5 9 C-5.33 9.99 -5.66 10.98 -6 12 C-8.5625 13.1875 -8.5625 13.1875 -11 14 C-11 13.34 -11 12.68 -11 12 C-9.68 11.67 -8.36 11.34 -7 11 C-7 10.01 -7 9.02 -7 8 C-6.01 8 -5.02 8 -4 8 C-4 7.01 -4 6.02 -4 5 C-2.35 4.67 -0.7 4.34 1 4 C0.67 2.68 0.34 1.36 0 0 Z " fill="#657D80" transform="translate(63,98)"/>
<path d="M0 0 C2.64 0 5.28 0 8 0 C8.05410687 1.77049689 8.09284119 3.54146849 8.125 5.3125 C8.14820313 6.29863281 8.17140625 7.28476563 8.1953125 8.30078125 C8 11 8 11 6 14 C5.67 10.04 5.34 6.08 5 2 C3.35 1.67 1.7 1.34 0 1 C0 0.67 0 0.34 0 0 Z " fill="#355459" transform="translate(126,81)"/>
<path d="M0 0 C0.33 0.66 0.66 1.32 1 2 C1.99 1.67 2.98 1.34 4 1 C4 1.66 4 2.32 4 3 C4.66 3 5.32 3 6 3 C6 4.32 6 5.64 6 7 C3.69 7 1.38 7 -1 7 C-0.67 4.69 -0.34 2.38 0 0 Z " fill="#103C44" transform="translate(118,53)"/>
<path d="M0 0 C-0.66 1.32 -1.32 2.64 -2 4 C-2.33 3.34 -2.66 2.68 -3 2 C-10.92 1.67 -18.84 1.34 -27 1 C-27 0.67 -27 0.34 -27 0 C-23.43798805 -0.19766544 -19.87538633 -0.38133629 -16.3125 -0.5625 C-15.30509766 -0.61857422 -14.29769531 -0.67464844 -13.25976562 -0.73242188 C-11.79506836 -0.80493164 -11.79506836 -0.80493164 -10.30078125 -0.87890625 C-9.40528564 -0.9260376 -8.50979004 -0.97316895 -7.5871582 -1.02172852 C-4.93176823 -0.99942695 -2.58041401 -0.60392668 0 0 Z " fill="#28464C" transform="translate(124,89)"/>
<path d="M0 0 C1.32 0.33 2.64 0.66 4 1 C3.67 2.98 3.34 4.96 3 7 C2.34 7 1.68 7 1 7 C0.67 7.66 0.34 8.32 0 9 C0 8.01 0 7.02 0 6 C-0.66 6 -1.32 6 -2 6 C-1.34 4.02 -0.68 2.04 0 0 Z " fill="#0F3A42" transform="translate(12,96)"/>
<path d="M0 0 C0.598125 0.20625 1.19625 0.4125 1.8125 0.625 C1.1525 2.605 0.4925 4.585 -0.1875 6.625 C-1.1775 6.625 -2.1675 6.625 -3.1875 6.625 C-3.8475 4.975 -4.5075 3.325 -5.1875 1.625 C-2.1875 -0.375 -2.1875 -0.375 0 0 Z " fill="#2F4E54" transform="translate(91.1875,67.375)"/>
<path d="M0 0 C1.29608947 0.93137592 2.58671632 1.8703566 3.875 2.8125 C4.59429687 3.33457031 5.31359375 3.85664062 6.0546875 4.39453125 C8 6 8 6 10 9 C8.68 9.99 7.36 10.98 6 12 C5.67 9.69 5.34 7.38 5 5 C4.01 5 3.02 5 2 5 C2 4.34 2 3.68 2 3 C1.34 3 0.68 3 0 3 C0 2.01 0 1.02 0 0 Z " fill="#4D6164" transform="translate(125,43)"/>
<path d="M0 0 C1.32 0.33 2.64 0.66 4 1 C4.33 2.32 4.66 3.64 5 5 C4.01 4.67 3.02 4.34 2 4 C2 4.66 2 5.32 2 6 C0.35 6.66 -1.3 7.32 -3 8 C-2.01 5.36 -1.02 2.72 0 0 Z " fill="#103940" transform="translate(20,107)"/>
<path d="M0 0 C0.33 0.66 0.66 1.32 1 2 C0.33333333 3.33333333 -0.33333333 4.66666667 -1 6 C-1.103125 7.03125 -1.20625 8.0625 -1.3125 9.125 C-1.539375 10.07375 -1.76625 11.0225 -2 12 C-4.54296875 13.1796875 -4.54296875 13.1796875 -7 14 C-6.40362909 12.41371392 -5.79754075 10.83107941 -5.1875 9.25 C-4.68283203 7.92742187 -4.68283203 7.92742187 -4.16796875 6.578125 C-3.03153178 4.06960192 -1.73457073 2.12720995 0 0 Z " fill="#677F82" transform="translate(50,84)"/>
<path d="M0 0 C0.66 0 1.32 0 2 0 C2 0.66 2 1.32 2 2 C3.32 2 4.64 2 6 2 C6.33 3.65 6.66 5.3 7 7 C5.68 6.67 4.36 6.34 3 6 C3.66 7.98 4.32 9.96 5 12 C4.34 12 3.68 12 3 12 C2 10 2 10 2.0625 7.125 C2.00080794 4.04039681 1.58770144 2.58001484 0 0 Z " fill="#465A61" transform="translate(49,80)"/>
<path d="M0 0 C2.64 1.32 5.28 2.64 8 4 C8 4.66 8 5.32 8 6 C7.01 5.67 6.02 5.34 5 5 C4.67 5.66 4.34 6.32 4 7 C4.66 7.33 5.32 7.66 6 8 C4.68 8 3.36 8 2 8 C1.67 7.01 1.34 6.02 1 5 C-0.05270463 3.84188612 -0.05270463 3.84188612 -2 3 C-1.34 2.01 -0.68 1.02 0 0 Z " fill="#183840" transform="translate(68,70)"/>
<path d="M0 0 C4.68277071 0.51084771 7.65803381 2.68908494 11.4375 5.375 C10.4475 5.87 10.4475 5.87 9.4375 6.375 C8.880625 6.065625 8.32375 5.75625 7.75 5.4375 C5.31251464 4.11541095 5.31251464 4.11541095 1.8125 4.4375 C0.69875 4.416875 -0.415 4.39625 -1.5625 4.375 C-2.2225 3.385 -2.8825 2.395 -3.5625 1.375 C-2.5625 0.375 -2.5625 0.375 0 0 Z " fill="#597479" transform="translate(46.5625,127.625)"/>
<path d="M0 0 C-2.85276137 2.93200474 -5.65079784 5.64315404 -9 8 C-9.66 7.67 -10.32 7.34 -11 7 C-9.54588235 2.39529412 -9.54588235 2.39529412 -7.1875 0.6875 C-4.68810383 -0.09802451 -2.60506718 -0.14472595 0 0 Z " fill="#476468" transform="translate(112,127)"/>
<path d="M0 0 C1.65 0.33 3.3 0.66 5 1 C5 2.32 5 3.64 5 5 C3.35 5 1.7 5 0 5 C0 5.66 0 6.32 0 7 C-0.99 6.67 -1.98 6.34 -3 6 C-3 5.34 -3 4.68 -3 4 C-2.34 3.67 -1.68 3.34 -1 3 C-0.67 2.01 -0.34 1.02 0 0 Z " fill="#748791" transform="translate(63,66)"/>
<path d="M0 0 C-0.4794463 4.21912747 -1.16625119 6.79663178 -4 10 C-5 6.125 -5 6.125 -5 5 C-5.99 4.67 -6.98 4.34 -8 4 C-2.25 0 -2.25 0 0 0 Z " fill="#58676B" transform="translate(107,38)"/>
<path d="M0 0 C1.98 0.99 1.98 0.99 4 2 C4 2.99 4 3.98 4 5 C4.66 5.33 5.32 5.66 6 6 C5.01 6.495 5.01 6.495 4 7 C3.34 6.67 2.68 6.34 2 6 C1.67 7.32 1.34 8.64 1 10 C0.67 10 0.34 10 0 10 C0 6.7 0 3.4 0 0 Z " fill="#1B3A42" transform="translate(115,37)"/>
<path d="M0 0 C-0.33 1.32 -0.66 2.64 -1 4 C-2.32 4 -3.64 4 -5 4 C-5.33 3.67 -5.66 3.34 -6 3 C-6.66 3 -7.32 3 -8 3 C-8.33 3.99 -8.66 4.98 -9 6 C-9 4.35 -9 2.7 -9 1 C-3.375 -1.125 -3.375 -1.125 0 0 Z " fill="#23404C" transform="translate(71,74)"/>
<path d="M0 0 C3.375 0.25 3.375 0.25 7 1 C8.1875 2.9375 8.1875 2.9375 9 5 C11.0335948 6.26804566 11.0335948 6.26804566 13 7 C11.02 7 9.04 7 7 7 C7 6.34 7 5.68 7 5 C6.34 5 5.68 5 5 5 C5 4.34 5 3.68 5 3 C4.01 3.33 3.02 3.66 2 4 C1.34 3.67 0.68 3.34 0 3 C0 2.01 0 1.02 0 0 Z " fill="#27444D" transform="translate(72,74)"/>
<path d="M0 0 C0.763125 0.20625 1.52625 0.4125 2.3125 0.625 C1.3225 1.12 1.3225 1.12 0.3125 1.625 C0.3125 2.285 0.3125 2.945 0.3125 3.625 C-1.6675 4.615 -3.6475 5.605 -5.6875 6.625 C-5.875 4.25 -5.875 4.25 -5.6875 1.625 C-2.6875 -0.375 -2.6875 -0.375 0 0 Z " fill="#506C70" transform="translate(122.6875,59.375)"/>
<path d="M0 0 C1.24103707 3.58521821 1.10314892 6.37536784 0 10 C-2.5625 11.375 -2.5625 11.375 -5 12 C-3.68938409 7.76570244 -2.05643741 3.92592596 0 0 Z " fill="#5F7678" transform="translate(42,98)"/>
<path d="M0 0 C0.66 0.33 1.32 0.66 2 1 C1.67 2.65 1.34 4.3 1 6 C-0.32 6 -1.64 6 -3 6 C-3.33 6.99 -3.66 7.98 -4 9 C-5.32 8.67 -6.64 8.34 -8 8 C-6.50260417 6.79557292 -5.00520833 5.59114583 -3.5078125 4.38671875 C-1.74707893 2.87729455 -1.74707893 2.87729455 0 0 Z " fill="#5F747B" transform="translate(112,110)"/>
<path d="M0 0 C0 1.32 0 2.64 0 4 C-0.99 4 -1.98 4 -3 4 C-3 4.66 -3 5.32 -3 6 C-3.66 6 -4.32 6 -5 6 C-5 5.01 -5 4.02 -5 3 C-5.66 3 -6.32 3 -7 3 C-7 2.34 -7 1.68 -7 1 C-4 0 -4 0 0 0 Z " fill="#243C45" transform="translate(70,95)"/>
<path d="M0 0 C0.66 0 1.32 0 2 0 C1.57405412 1.44096586 1.13373367 2.87768712 0.6875 4.3125 C0.44386719 5.11300781 0.20023437 5.91351563 -0.05078125 6.73828125 C-1.04182023 9.09964573 -2.08074943 10.33879993 -4 12 C-4.33 11.01 -4.66 10.02 -5 9 C-4.34 9 -3.68 9 -3 9 C-3 7.68 -3 6.36 -3 5 C-2.34 5 -1.68 5 -1 5 C-0.67 3.35 -0.34 1.7 0 0 Z " fill="#728A91" transform="translate(101,48)"/>
<path d="M0 0 C2 3 2 3 1.75 5.0625 C1 7 1 7 -1 9 C-1.69748583 10.31747324 -2.36959957 11.64914193 -3 13 C-2.52060632 8.28596212 -2.03165952 4.33420699 0 0 Z " fill="#4D787D" transform="translate(8,53)"/>
<path d="M0 0 C0.66 0 1.32 0 2 0 C2.33 1.32 2.66 2.64 3 4 C1.68 4 0.36 4 -1 4 C-1 4.66 -1 5.32 -1 6 C-2.32 6.33 -3.64 6.66 -5 7 C-4.67 5.68 -4.34 4.36 -4 3 C-2.68 2.67 -1.36 2.34 0 2 C0 1.34 0 0.68 0 0 Z " fill="#11353B" transform="translate(81,46)"/>
<path d="M0 0 C-0.639375 0.28875 -1.27875 0.5775 -1.9375 0.875 C-4.15206079 1.82823451 -4.15206079 1.82823451 -5 4 C-4.01 4.33 -3.02 4.66 -2 5 C-3.65 5.33 -5.3 5.66 -7 6 C-7 5.34 -7 4.68 -7 4 C-8.32 3.34 -9.64 2.68 -11 2 C-3.57142857 -1.57142857 -3.57142857 -1.57142857 0 0 Z " fill="#637E89" transform="translate(52,15)"/>
<path d="M0 0 C2.475 0.495 2.475 0.495 5 1 C4.67 2.65 4.34 4.3 4 6 C2.68 6 1.36 6 0 6 C0 4.02 0 2.04 0 0 Z " fill="#223D46" transform="translate(64,55)"/>
<path d="M0 0 C0.33 0.99 0.66 1.98 1 3 C-0.65 4.65 -2.3 6.3 -4 8 C-3.67 5.69 -3.34 3.38 -3 1 C-2.01 0.67 -1.02 0.34 0 0 Z " fill="#0F3A3F" transform="translate(85,53)"/>
<path d="M0 0 C0.66 0.33 1.32 0.66 2 1 C0.71186658 1.83878455 -0.58063256 2.67086783 -1.875 3.5 C-2.59429687 3.9640625 -3.31359375 4.428125 -4.0546875 4.90625 C-6 6 -6 6 -8 6 C-7.67 4.35 -7.34 2.7 -7 1 C-6.67 1.66 -6.34 2.32 -6 3 C-5.05125 2.484375 -4.1025 1.96875 -3.125 1.4375 C-2.09375 0.963125 -1.0625 0.48875 0 0 Z " fill="#76878A" transform="translate(82,132)"/>
<path d="M0 0 C0.66 0.99 1.32 1.98 2 3 C1.67 3.99 1.34 4.98 1 6 C-1.5625 7.1875 -1.5625 7.1875 -4 8 C-2.25 2.25 -2.25 2.25 0 0 Z " fill="#4D6E74" transform="translate(51,98)"/>
<path d="M0 0 C2.12508244 3.18762365 2.5020163 5.26512223 3 9 C2.34 9 1.68 9 1 9 C0.67 9.66 0.34 10.32 0 11 C-1.26026798 8.47946405 -0.91874445 7.1457902 -0.5625 4.375 C-0.46066406 3.55773437 -0.35882813 2.74046875 -0.25390625 1.8984375 C-0.17011719 1.27195312 -0.08632812 0.64546875 0 0 Z M-2 11 C0 12 0 12 0 12 Z " fill="#365459" transform="translate(16,87)"/>
<path d="M0 0 C0.66 0.33 1.32 0.66 2 1 C1.67 3.31 1.34 5.62 1 8 C-0.65 8 -2.3 8 -4 8 C-2.68 5.36 -1.36 2.72 0 0 Z " fill="#18373D" transform="translate(101,81)"/>
<path d="M0 0 C1.14949588 0.78633922 2.29448989 1.57926258 3.4375 2.375 C4.39462891 3.03628906 4.39462891 3.03628906 5.37109375 3.7109375 C7 5 7 5 8 7 C5.6875 7.3125 5.6875 7.3125 3 7 C1.18116991 4.6167054 0 3.04181663 0 0 Z " fill="#73848A" transform="translate(76,63)"/>
<path d="M0 0 C0.66 0.99 1.32 1.98 2 3 C1.01 3.99 0.02 4.98 -1 6 C-1.33 5.34 -1.66 4.68 -2 4 C-2.99 4.33 -3.98 4.66 -5 5 C-4.67 3.68 -4.34 2.36 -4 1 C-2.68 0.67 -1.36 0.34 0 0 Z " fill="#0F3A42" transform="translate(104,23)"/>
<path d="M0 0 C0.66 0.33 1.32 0.66 2 1 C1.375 2.9375 1.375 2.9375 0 5 C-3.125 5.75 -3.125 5.75 -6 6 C-4 4 -2 2 0 0 Z " fill="#5A7073" transform="translate(32,22)"/>
<path d="M0 0 C1.98 0 3.96 0 6 0 C6.33 1.65 6.66 3.3 7 5 C6.34 5 5.68 5 5 5 C5 4.34 5 3.68 5 3 C2.525 2.01 2.525 2.01 0 1 C0 0.67 0 0.34 0 0 Z " fill="#5A6F75" transform="translate(34,132)"/>
<path d="M0 0 C0.33 0.66 0.66 1.32 1 2 C1.66 2 2.32 2 3 2 C3.80967438 4.91482778 4.21845993 6.46113217 3.0625 9.3125 C2.5365625 10.1478125 2.5365625 10.1478125 2 11 C0.80712589 7.12315913 0 4.08378077 0 0 Z " fill="#4F6368" transform="translate(5,86)"/>
<path d="M0 0 C0.99 0.33 1.98 0.66 3 1 C3.625 2.875 3.625 2.875 4 5 C4.33 5.99 4.66 6.98 5 8 C3.0625 7.375 3.0625 7.375 1 6 C0.25 2.875 0.25 2.875 0 0 Z " fill="#26414A" transform="translate(68,80)"/>
<path d="M0 0 C1.32 0 2.64 0 4 0 C3.67 1.65 3.34 3.3 3 5 C1.68 4.67 0.36 4.34 -1 4 C-0.67 2.68 -0.34 1.36 0 0 Z " fill="#4B666F" transform="translate(65,83)"/>
<path d="M0 0 C1.67542976 0.28604898 3.34385343 0.61781233 5 1 C3.8125 2.5625 3.8125 2.5625 2 4 C-1.34192692 3.75546876 -2.60543557 3.39456443 -5 1 C-3.68 1 -2.36 1 -1 1 C-0.67 0.67 -0.34 0.34 0 0 Z " fill="#3C5658" transform="translate(105,31)"/>
<path d="M0 0 C2 1 2 1 3 3 C1.1875 4.0625 1.1875 4.0625 -1 5 C-1.99 4.67 -2.98 4.34 -4 4 C-4 3.34 -4 2.68 -4 2 C-2.125 0.9375 -2.125 0.9375 0 0 Z " fill="#315258" transform="translate(66,145)"/>
<path d="M0 0 C0 2 0 2 -1.125 3.625 C-3.75887944 5.55651159 -5.81916956 5.21205536 -9 5 C-2.87096774 0 -2.87096774 0 0 0 Z " fill="#66787D" transform="translate(93,127)"/>
<path d="M0 0 C2.3431213 0.25561323 4.67843403 0.59270772 7 1 C7.33 1.66 7.66 2.32 8 3 C6.02 3.33 4.04 3.66 2 4 C1.34 2.68 0.68 1.36 0 0 Z " fill="#3C5D63" transform="translate(40,125)"/>
<path d="M0 0 C-2.36292656 2.52588702 -3.66462511 3.88820837 -7 5 C-7 3.68 -7 2.36 -7 1 C-4.53721199 -0.231394 -2.7204945 -0.07159196 0 0 Z " fill="#677B7E" transform="translate(50,113)"/>
<path d="M0 0 C1.38111722 2.2747813 2.05694702 3.50171361 1.75 6.1875 C1 8 1 8 -1 9 C-2.0326802 6.21176345 -2.04509293 5.1322726 -1.0625 2.25 C-0.711875 1.5075 -0.36125 0.765 0 0 Z " fill="#516871" transform="translate(53,72)"/>
<path d="M0 0 C2.00720923 0.28674418 4.0085944 0.61866701 6 1 C5.01 2.485 5.01 2.485 4 4 C4 3.34 4 2.68 4 2 C2.02 2.99 0.04 3.98 -2 5 C-1.125 1.125 -1.125 1.125 0 0 Z " fill="#566B74" transform="translate(83,59)"/>
<path d="M0 0 C4.29 0 8.58 0 13 0 C13 0.66 13 1.32 13 2 C12.01 2.33 11.02 2.66 10 3 C9.67 2.67 9.34 2.34 9 2 C7.48530552 1.76807135 5.96245438 1.58784762 4.4375 1.4375 C3.61121094 1.35371094 2.78492187 1.26992188 1.93359375 1.18359375 C1.29550781 1.12300781 0.65742187 1.06242187 0 1 C0 0.67 0 0.34 0 0 Z " fill="#050E73" transform="translate(68,46)"/>
<path d="M0 0 C1.98 0.495 1.98 0.495 4 1 C2.515 3.475 2.515 3.475 1 6 C0.34 5.01 -0.32 4.02 -1 3 C-0.67 2.01 -0.34 1.02 0 0 Z " fill="#4C6366" transform="translate(24,41)"/>
<path d="M0 0 C-0.33 0.99 -0.66 1.98 -1 3 C-1.99 3 -2.98 3 -4 3 C-4 3.66 -4 4.32 -4 5 C-4.99 4.67 -5.98 4.34 -7 4 C-7 3.34 -7 2.68 -7 2 C-4.35261084 0.5393715 -3.10551666 0 0 0 Z " fill="#8C9DA4" transform="translate(78,90)"/>
<path d="M0 0 C2 1 2 1 3 2 C3.66 1.67 4.32 1.34 5 1 C5.33 2.32 5.66 3.64 6 5 C3 5 3 5 1 4 C1 3.34 1 2.68 1 2 C0.34 1.67 -0.32 1.34 -1 1 C-0.67 0.67 -0.34 0.34 0 0 Z " fill="#2F444D" transform="translate(80,72)"/>
<path d="M0 0 C0.33 0.99 0.66 1.98 1 3 C0.34 3 -0.32 3 -1 3 C-1 3.66 -1 4.32 -1 5 C-2.65 4.67 -4.3 4.34 -6 4 C-2.25 0 -2.25 0 0 0 Z " fill="#1E434D" transform="translate(92,55)"/>
<path d="" fill="#808080" transform="translate(0,0)"/>
</svg>
